<svg id="b19092da-ea19-4c80-b7bf-e1d0f77d03f6" data-name="Layer 1" xmlns="http://www.w3.org/2000/svg" viewBox="0 0 800 250"><circle cx="112.56" cy="125" r="102.56" fill="#088fff"/><path d="M84.11,185.88V66.75H161V84.28H105.9v33.36h44.59v17.18H105.9v51.06Z" fill="#fff"/><path d="M264.8,186.55q-10.89,0-17.87-3.49a24.17,24.17,0,0,1-10.38-9.28,24.67,24.67,0,0,1-3.4-12.76A23.21,23.21,0,0,1,242.34,142q9.18-7.32,27.57-7.32h21.44v-2q0-8.68-4.93-12.77a18.62,18.62,0,0,0-12.26-4.08,21,21,0,0,0-11.57,3.15,13.58,13.58,0,0,0-6.13,9.27H235.19a29.74,29.74,0,0,1,6.21-16,34.91,34.91,0,0,1,13.87-10.46,47.78,47.78,0,0,1,19.06-3.66q18,0,28.42,9t10.39,25.53v51.9H294.58l-2-13.61a31.38,31.38,0,0,1-10.46,11.23Q275.34,186.55,264.8,186.55Zm4.94-17q9.36,0,14.55-6.13a29.74,29.74,0,0,0,6.55-15.15H272.29q-8.69,0-12.42,3.15a9.74,9.74,0,0,0-3.75,7.75,8.89,8.89,0,0,0,3.75,7.65Q263.61,169.53,269.74,169.53Z" fill="#fff"/><path d="M333.9,184.5V100.09h19.4l2,15.83a35.29,35.29,0,0,1,12.51-13,34.91,34.91,0,0,1,18.64-4.85v23h-6.13a34.45,34.45,0,0,0-12.76,2.22,17.15,17.15,0,0,0-8.77,7.65q-3.15,5.46-3.15,15.15V184.5Z" fill="#fff"/><path d="M401.29,184.5V100.09h19.23l1.88,11.4a30,30,0,0,1,10.8-9.78,32,32,0,0,1,15.57-3.66q19.58,0,27.75,15.14a32.82,32.82,0,0,1,12.33-11.06,35.81,35.81,0,0,1,16.94-4.08q16.5,0,25.36,9.87T540,136.85V184.5H518.21V138.89q0-10.89-4.17-16.68t-12.85-5.78A17.52,17.52,0,0,0,487,122.9q-5.36,6.46-5.36,18V184.5H459.84V138.89q0-10.89-4.26-16.68t-13.1-5.78a17.32,17.32,0,0,0-14,6.47q-5.37,6.46-5.36,18V184.5Z" fill="#fff"/><path d="M601.77,186.55a46.07,46.07,0,0,1-22.63-5.45,39.47,39.47,0,0,1-15.49-15.32A45.33,45.33,0,0,1,558,143a48.15,48.15,0,0,1,5.53-23.32,40.09,40.09,0,0,1,15.31-15.91q9.79-5.7,23.06-5.7a43.51,43.51,0,0,1,22,5.44,39.17,39.17,0,0,1,14.89,14.9,41.83,41.83,0,0,1,5.36,21c0,1.25,0,2.56-.08,3.92s-.15,2.78-.26,4.25H579.65q.68,9.87,6.89,15.49a21.68,21.68,0,0,0,15.06,5.62,19.85,19.85,0,0,0,11.15-3,18.41,18.41,0,0,0,6.72-7.75H641.6a40.1,40.1,0,0,1-7.92,14.56,38.93,38.93,0,0,1-13.61,10.29A43,43,0,0,1,601.77,186.55Zm.17-70.8a23.16,23.16,0,0,0-14.12,4.51q-6.14,4.5-7.83,13.7h42q-.51-8.34-6.13-13.28A20.38,20.38,0,0,0,601.94,115.75Z" fill="#fff"/><path d="M703.89,186.55a45.35,45.35,0,0,1-22.81-5.62,40.81,40.81,0,0,1-15.57-15.66,45.7,45.7,0,0,1-5.7-23,45.76,45.76,0,0,1,5.7-23,41,41,0,0,1,15.57-15.66,45.35,45.35,0,0,1,22.81-5.61q16.15,0,27.23,8.42t14.12,23.23h-23a16.8,16.8,0,0,0-6.73-9.61,21.09,21.09,0,0,0-27.14,3.32q-6.3,6.79-6.3,18.89t6.3,18.89A20.07,20.07,0,0,0,703.72,168a20.54,20.54,0,0,0,11.82-3.41,16.47,16.47,0,0,0,6.73-9.7h23a38.52,38.52,0,0,1-14.12,23Q720.05,186.54,703.89,186.55Z" fill="#fff"/><path d="M776.38,87a13.77,13.77,0,0,1-9.78-3.58,11.82,11.82,0,0,1-3.83-9,11.54,11.54,0,0,1,3.83-8.93,15.46,15.46,0,0,1,19.57,0A11.54,11.54,0,0,1,790,74.39a11.82,11.82,0,0,1-3.83,9A13.78,13.78,0,0,1,776.38,87ZM765.49,184.5V100.09h21.79V184.5Z" fill="#fff"/></svg>