<svg id="Group_3911" data-name="Group 3911" xmlns="http://www.w3.org/2000/svg" width="155.357" height="159.906" viewBox="0 0 155.357 159.906">
  <g id="Group_3892" data-name="Group 3892">
    <path id="Path_14868" data-name="Path 14868" d="M184.877,101.019l-.923-1.524A40.229,40.229,0,0,0,147.237,79.87a39.479,39.479,0,0,0-5.685.781,42.25,42.25,0,0,0-30.11,26.173c-2.865,7.687-3.664,16.54-9.1,22.643-7.071,7.926-19.076,8.184-29.632,7.855s-22.568-.049-29.606,7.915c-4.408,4.994-5.808,12.1-5.453,18.785.941,17.705,13.283,33.539,28.971,41.409s34.166,8.572,51.337,5.11c24.059-4.856,46.937-18.165,60.687-38.735S195.881,123.221,184.877,101.019Z" transform="translate(-37.599 -66.617)" fill="#58b3ff" opacity="0.2"/>
    <ellipse id="Ellipse_682" data-name="Ellipse 682" cx="8.651" cy="8.651" rx="8.651" ry="8.651" transform="translate(138.055)" fill="#58b3ff" opacity="0.2"/>
  </g>
  <g id="freepik--Clipboard--inject-47" transform="translate(28.902 29.819)">
    <rect id="Rectangle_1812" data-name="Rectangle 1812" width="97.554" height="128.848" rx="10.1" transform="translate(0 1.24)" fill="#455a64"/>
    <rect id="Rectangle_1813" data-name="Rectangle 1813" width="84.488" height="113.907" transform="translate(6.529 7.329)" fill="#fff"/>
    <path id="Path_14786" data-name="Path 14786" d="M232.072,167.164c0-.777-.037-46.463-.09-113.925l.09.086h-84.48l.1-.1V167.152l-.082-.082,84.491.082-84.491.078h-.078v-.078c0-32.063,0-71.426-.019-113.925v-.1h84.674v.09C232.11,120.69,232.072,166.387,232.072,167.164Z" transform="translate(-141.052 -45.928)" fill="#263238"/>
    <path id="Path_14787" data-name="Path 14787" d="M184.4,86.818l-1.968-2.962h-2.178v2.962H177.89V76.187h4.423a5.5,5.5,0,0,1,2.361.471,3.53,3.53,0,0,1,1.539,1.326,3.765,3.765,0,0,1,.542,2.051,3.7,3.7,0,0,1-.549,2.058,3.478,3.478,0,0,1-1.55,1.307l2.293,3.418Zm-.6-8.147a2.4,2.4,0,0,0-1.621-.478h-1.927V81.9h1.927a2.391,2.391,0,0,0,1.621-.489A1.961,1.961,0,0,0,183.8,78.671Z" transform="translate(-160.084 -60.372)" fill="#088fff"/>
    <path id="Path_14788" data-name="Path 14788" d="M197.079,107.43l-2.338-3.481-2.3,3.5H189.87l3.586-5.121-3.407-4.949H192.6l2.241,3.265,2.178-3.28h2.42l-3.362,4.856,3.612,5.207Z" transform="translate(-167.589 -73.637)" fill="#088fff"/>
    <rect id="Rectangle_1814" data-name="Rectangle 1814" width="14.5" height="3.59" transform="translate(47.18 18.355)" fill="#e0e0e0"/>
    <path id="Path_14789" data-name="Path 14789" d="M322.566,88.9c0,.056-3.967.1-8.86.1s-8.856-.041-8.856-.1,3.963-.1,8.856-.1S322.566,88.845,322.566,88.9Z" transform="translate(-239.621 -68.275)" fill="#263238"/>
    <path id="Path_14790" data-name="Path 14790" d="M291.963,100.421c0,.052-7.934.1-17.716.1s-17.716-.045-17.716-.1,7.93-.1,17.716-.1S291.963,100.365,291.963,100.421Z" transform="translate(-209.35 -75.492)" fill="#263238"/>
    <path id="Path_14791" data-name="Path 14791" d="M291.963,111.717c0,.052-7.934.1-17.716.1s-17.716-.045-17.716-.1,7.93-.1,17.716-.1S291.963,111.661,291.963,111.717Z" transform="translate(-209.35 -82.571)" fill="#263238"/>
    <path id="Path_14792" data-name="Path 14792" d="M234.148,141.831c0,.052-17.627.1-39.362.1s-39.366-.045-39.366-.1,17.619-.1,39.366-.1S234.148,141.767,234.148,141.831Z" transform="translate(-146.007 -101.434)" fill="#263238"/>
    <path id="Path_14793" data-name="Path 14793" d="M234.148,312.3c0,.052-17.627.1-39.362.1s-39.366-.045-39.366-.1,17.619-.1,39.366-.1S234.148,312.241,234.148,312.3Z" transform="translate(-146.007 -208.229)" fill="#263238"/>
    <rect id="Rectangle_1815" data-name="Rectangle 1815" width="24.29" height="4.557" transform="translate(15.897 46.833)" fill="#e0e0e0"/>
    <rect id="Rectangle_1816" data-name="Rectangle 1816" width="10.515" height="4.557" transform="translate(15.897 110.567)" fill="#e0e0e0"/>
    <rect id="Rectangle_1817" data-name="Rectangle 1817" width="10.515" height="4.557" transform="translate(51.203 110.567)" fill="#e0e0e0"/>
    <path id="Path_14794" data-name="Path 14794" d="M223.508,338.147c0,.056-3.283.1-7.332.1s-7.336-.041-7.336-.1,3.283-.1,7.336-.1S223.508,338.095,223.508,338.147Z" transform="translate(-179.473 -224.424)" fill="#263238"/>
    <path id="Path_14795" data-name="Path 14795" d="M324.588,338.147c0,.056-3.283.1-7.332.1s-7.336-.041-7.336-.1,3.283-.1,7.336-.1S324.588,338.095,324.588,338.147Z" transform="translate(-242.798 -224.424)" fill="#263238"/>
    <path id="Path_14796" data-name="Path 14796" d="M239.106,189.637c0,.052-14.392.1-32.123.1s-32.123-.045-32.123-.1,14.384-.1,32.123-.1S239.106,189.581,239.106,189.637Z" transform="translate(-158.186 -131.386)" fill="#263238"/>
    <path id="Path_14797" data-name="Path 14797" d="M240.31,203.557c0,.056-14.668.1-32.758.1s-32.762-.041-32.762-.1,14.665-.1,32.762-.1S240.31,203.5,240.31,203.557Z" transform="translate(-158.142 -140.106)" fill="#263238"/>
    <path id="Path_14798" data-name="Path 14798" d="M205.292,217.487c0,.052-7.28.1-16.256.1s-16.256-.045-16.256-.1,7.276-.1,16.256-.1S205.292,217.431,205.292,217.487Z" transform="translate(-156.883 -148.833)" fill="#263238"/>
    <path id="Path_14799" data-name="Path 14799" d="M300.1,257.88s-.071.03-.217.075l-.635.194a21.365,21.365,0,0,1-2.5.583,11.686,11.686,0,0,1-1.845.176,7.727,7.727,0,0,1-2.193-.273,5.6,5.6,0,0,1-2.215-1.229,4.247,4.247,0,0,1-1.333-2.491,2.931,2.931,0,0,1,.183-1.531,2.872,2.872,0,0,1,1.038-1.24,2.166,2.166,0,0,1,1.64-.347,2.207,2.207,0,0,1,.792.374,2.413,2.413,0,0,1,.568.691,3.757,3.757,0,0,1,.4,1.763,5.035,5.035,0,0,1-.336,1.83,7.265,7.265,0,0,1-2.327,3.055,7.788,7.788,0,0,1-3.735,1.569,6.849,6.849,0,0,1-2.1-.026,7.056,7.056,0,0,1-1.042-.25,8.381,8.381,0,0,1-.994-.441,6.07,6.07,0,0,1-1.685-1.389,4.648,4.648,0,0,1-1-1.991,3.246,3.246,0,0,1,.265-2.241,3.4,3.4,0,0,1,1.647-1.576,2.35,2.35,0,0,1,1.154-.2,2.241,2.241,0,0,1,1.087.411,3.309,3.309,0,0,1,1.184,1.92,6.265,6.265,0,0,1,.12,2.219,8.912,8.912,0,0,1-.482,2.125,8.071,8.071,0,0,1-2.346,3.5,6.4,6.4,0,0,1-3.735,1.528,5.383,5.383,0,0,1-5.745-3.963,5.114,5.114,0,0,1,.127-3.362,2.9,2.9,0,0,1,.979-1.285,1.714,1.714,0,0,1,.747-.31,1.2,1.2,0,0,1,.769.146,1.655,1.655,0,0,1,.747,1.262,4.031,4.031,0,0,1-.056,1.393,10.212,10.212,0,0,1-.747,2.42,9.888,9.888,0,0,1-1.121,1.894,9.49,9.49,0,0,1-1.248,1.375,9.059,9.059,0,0,1-2.1,1.464,5.936,5.936,0,0,1-.605.28l-.213.082.205-.1c.134-.067.344-.149.6-.3a9.506,9.506,0,0,0,2.066-1.494,10.388,10.388,0,0,0,2.331-3.257,9.974,9.974,0,0,0,.747-2.394,4.108,4.108,0,0,0,.049-1.356,1.543,1.543,0,0,0-.68-1.162,1.057,1.057,0,0,0-.684-.127,1.573,1.573,0,0,0-.669.291,2.735,2.735,0,0,0-.926,1.221,4.949,4.949,0,0,0-.108,3.265,5.229,5.229,0,0,0,5.573,3.832,6.234,6.234,0,0,0,3.619-1.494,7.862,7.862,0,0,0,2.286-3.421,8.891,8.891,0,0,0,.471-2.084,6.056,6.056,0,0,0-.12-2.151,3.082,3.082,0,0,0-1.121-1.8,2.032,2.032,0,0,0-2.051-.191,3.212,3.212,0,0,0-1.554,1.494,3.041,3.041,0,0,0-.247,2.1,5.144,5.144,0,0,0,2.585,3.257,8.438,8.438,0,0,0,.96.426,6.85,6.85,0,0,0,3.059.273,7.719,7.719,0,0,0,1.939-.534,7.844,7.844,0,0,0,1.7-.994,7.1,7.1,0,0,0,2.275-2.988,4.909,4.909,0,0,0,.332-1.767,3.619,3.619,0,0,0-.374-1.685,2.383,2.383,0,0,0-.523-.646A2.043,2.043,0,0,0,292,251.9a2.013,2.013,0,0,0-1.524.321,2.689,2.689,0,0,0-.986,1.169,2.809,2.809,0,0,0-.183,1.46,4.139,4.139,0,0,0,1.285,2.417,5.509,5.509,0,0,0,2.163,1.214,7.616,7.616,0,0,0,2.159.284,11.7,11.7,0,0,0,1.834-.157,24.325,24.325,0,0,0,2.5-.545l.642-.176Z" transform="translate(-218.409 -170.363)" fill="#263238"/>
    <rect id="Rectangle_1818" data-name="Rectangle 1818" width="28.194" height="10.78" transform="translate(34.678 0.146)" fill="#def128"/>
    <path id="Path_14800" data-name="Path 14800" d="M251.135,44.772V41.877c0-1.868-.022-4.546-.037-7.881l.067.067-28.19.03h0l.1-.1V44.772l-.093-.093,20.17.045,5.876.026h2.133a.77.77,0,0,1-.131,0h-1.957l-5.857.026-20.249.041h-.093V33.947l.1-.1h0l28.19.03h.067v.067c0,3.362-.026,6.051-.037,7.922v2.674A.527.527,0,0,1,251.135,44.772Z" transform="translate(-188.263 -33.85)" fill="#263238"/>
  </g>
</svg>
