<svg xmlns="http://www.w3.org/2000/svg" width="155.84" height="159.906" viewBox="0 0 155.84 159.906">
  <g id="Group_3994" data-name="Group 3994" transform="translate(-1193.08 -998.999)">
    <g id="Group_3891" data-name="Group 3891" transform="translate(1193.32 998.999)">
      <path id="Path_14868" data-name="Path 14868" d="M184.877,101.019l-.923-1.524A40.229,40.229,0,0,0,147.237,79.87a39.479,39.479,0,0,0-5.685.781,42.25,42.25,0,0,0-30.11,26.173c-2.865,7.687-3.664,16.54-9.1,22.643-7.071,7.926-19.076,8.184-29.632,7.855s-22.568-.049-29.606,7.915c-4.408,4.994-5.808,12.1-5.453,18.785.941,17.705,13.283,33.539,28.971,41.409s34.166,8.572,51.337,5.11c24.059-4.856,46.937-18.165,60.687-38.735S195.881,123.221,184.877,101.019Z" transform="translate(-37.599 -66.617)" fill="#58b3ff" opacity="0.2"/>
      <ellipse id="Ellipse_682" data-name="Ellipse 682" cx="8.651" cy="8.651" rx="8.651" ry="8.651" transform="translate(138.055)" fill="#58b3ff" opacity="0.2"/>
    </g>
    <g id="freepik--Character--inject-2" transform="translate(860.678 869.778)">
      <path id="Path_16680" data-name="Path 16680" d="M554.633,252.13s7.074,1.193,7.644,1.346,2.811,1.215,2.925,1.9a20.5,20.5,0,0,1,0,2.7s-.408.329-.658-.329a6.711,6.711,0,0,1-.215-1.96l-1.254-.482.684,1.215.114,2.846s-.877-.079-1.048-.759a6.716,6.716,0,0,1-.167-1.443l-.912-.772.684.925.228,2.048s-.667.219-.877-.237a7.056,7.056,0,0,1-.228-1.811l-2.579-.9-1.706.952-3.188-1.78Z" transform="translate(-124.462 -56.066)" fill="#ffbe9d"/>
      <path id="Path_16681" data-name="Path 16681" d="M494.357,212.26c.035.14,8.525,11.841,8.525,11.841l17.059,5.306-.776,6.407L498.26,231.6l-7.42-8.517Z" transform="translate(-88.956 -33.681)" fill="#088fff"/>
      <g id="Group_3987" data-name="Group 3987" transform="translate(401.884 178.579)" opacity="0.2">
        <path id="Path_16682" data-name="Path 16682" d="M494.357,212.26c.035.14,8.525,11.841,8.525,11.841l17.059,5.306-.776,6.407L498.26,231.6l-7.42-8.517Z" transform="translate(-490.84 -212.26)"/>
      </g>
      <rect id="Rectangle_2084" data-name="Rectangle 2084" width="37.531" height="6.793" rx="3.05" transform="translate(339.492 194.669)" fill="#def128"/>
      <path id="Path_16683" data-name="Path 16683" d="M384.622,255.546a1.189,1.189,0,0,0,.219-.031,1.316,1.316,0,0,0,1.07-1.153v-4.3a1.316,1.316,0,0,0-.439-.938,1.276,1.276,0,0,0-.5-.259,2.013,2.013,0,0,0-.592-.039H380.32l-30.527.035a1.228,1.228,0,0,0-.908.4,1.259,1.259,0,0,0-.316.943v3.837a1.832,1.832,0,0,0,.044.5,1.237,1.237,0,0,0,1.048.9h8.622l13.722.026,9.253.035,2.517.022h0l-2.517.022-9.253.035-13.722.026H349.6a1.5,1.5,0,0,1-.544-.175,1.451,1.451,0,0,1-.693-.877,1.779,1.779,0,0,1-.053-.561v-3.82a1.513,1.513,0,0,1,.382-1.1,1.439,1.439,0,0,1,1.074-.474l30.527.035h4.065a2.525,2.525,0,0,1,.627.053,1.385,1.385,0,0,1,.544.289,1.412,1.412,0,0,1,.487,1.031v2.859c0,.548,0,1.026-.022,1.456a1.386,1.386,0,0,1-.531.917,1.316,1.316,0,0,1-.605.25A.78.78,0,0,1,384.622,255.546Z" transform="translate(-8.932 -54.084)" fill="#263238"/>
      <circle id="Ellipse_720" data-name="Ellipse 720" cx="17.932" cy="17.932" r="17.932" transform="translate(450.698 253.302) rotate(-2.75)" fill="#263238"/>
      <path id="Path_16684" data-name="Path 16684" d="M604.078,420.84v.048a17.932,17.932,0,1,0,35.86.517s0-.031,0-.048Z" transform="translate(-152.532 -150.789)" fill="#263238"/>
      <path id="Path_16685" data-name="Path 16685" d="M616.248,405.235a12.591,12.591,0,1,0,12.77-12.406A12.591,12.591,0,0,0,616.248,405.235Z" transform="translate(-159.366 -135.061)" fill="#fafafa"/>
      <path id="Path_16686" data-name="Path 16686" d="M629.02,392.828a12.591,12.591,0,0,0-12.771,12.406l25.177.364a12.591,12.591,0,0,0-12.406-12.77Z" transform="translate(-159.368 -135.061)" fill="#e0e0e0"/>
      <path id="Path_16687" data-name="Path 16687" d="M627.469,411.605a7.67,7.67,0,1,0,7.78-7.556A7.67,7.67,0,0,0,627.469,411.605Z" transform="translate(-165.666 -141.361)" fill="#263238"/>
      <path id="Path_16688" data-name="Path 16688" d="M609.588,360.671s18.358-5.552,25.949,14.393l-38.417,11.9Z" transform="translate(-148.627 -116.608)" fill="#088fff"/>
      <circle id="Ellipse_721" data-name="Ellipse 721" cx="17.932" cy="17.932" r="17.932" transform="translate(340.062 253.304) rotate(-2.75)" fill="#263238"/>
      <path id="Path_16689" data-name="Path 16689" d="M351.788,420.84v.048a17.932,17.932,0,1,0,35.86.517v-.057Z" transform="translate(-10.883 -150.789)" fill="#263238"/>
      <path id="Path_16690" data-name="Path 16690" d="M364,405.235a12.591,12.591,0,1,0,12.77-12.406A12.591,12.591,0,0,0,364,405.235Z" transform="translate(-17.739 -135.061)" fill="#fafafa"/>
      <path id="Path_16691" data-name="Path 16691" d="M376.753,392.829A12.591,12.591,0,0,0,364,405.235l25.177.364a12.591,12.591,0,0,0-12.424-12.77Z" transform="translate(-17.741 -135.062)" fill="#e0e0e0"/>
      <path id="Path_16692" data-name="Path 16692" d="M375.179,411.605a7.67,7.67,0,1,0,7.78-7.556A7.67,7.67,0,0,0,375.179,411.605Z" transform="translate(-24.017 -141.361)" fill="#263238"/>
      <path id="Path_16693" data-name="Path 16693" d="M411.617,403.273c-.1.053-9.437-1.443-9.437-1.443h0a5.7,5.7,0,0,1-4.258,2.228c-4.035.193-7.977.373-11.4.526a5.789,5.789,0,0,0-5.526,6.021h0a5.793,5.793,0,0,0,5.556,5.543l19.879.785a13.264,13.264,0,0,0,9.648-4.412h0Z" transform="translate(-27.279 -140.116)" fill="#455a64"/>
      <path id="Path_16694" data-name="Path 16694" d="M339.57,326.223s-.851-17.476,15.573-21.116v-2.241h57.528v5.377s-8.442,10.17-5.7,18.612,3.618,9.306,3.618,9.306H443.33a22.365,22.365,0,0,0,4.135-12.406c.175-7.411-2.9-20.081-5.206-28.181-2.079-7.389-3.394-13.547-3.394-13.547l9.823-3.276s18.178,23.791,18.919,25.107,3.267,4.456,2.675,11.288-16.945,27.909-21.234,30.286-8.166,2.526-12.029,3.118c-3.35.517-28.137.175-34.623.075a12.718,12.718,0,0,1-6.4-1.776c-1.938-1.175-3.394-3.122-5-6.315l-3.434-6.683Z" transform="translate(-4.02 -71.012)" fill="#088fff"/>
      <path id="Path_16695" data-name="Path 16695" d="M339.953,384.26l-7.245,11.35a1.754,1.754,0,0,0,2.153,2.6,8.438,8.438,0,0,0,2.434-1.649C340.606,393.4,346.5,385.1,346.5,385.1Z" transform="translate(0 -130.251)" fill="#455a64"/>
      <path id="Path_16696" data-name="Path 16696" d="M404.587,363.586a.509.509,0,0,1,.044-.167l.145-.478a12.612,12.612,0,0,0,.382-1.873,13.218,13.218,0,0,0-1.123-6.85,14.35,14.35,0,0,0-2.671-4.013,17.515,17.515,0,0,0-4.385-3.359,22.2,22.2,0,0,0-5.745-2.14,30.26,30.26,0,0,0-6.578-.68,49.558,49.558,0,0,0-6.578.487c-2.123.285-4.157.636-6.078,1.074a35.995,35.995,0,0,0-9.758,3.609,24.147,24.147,0,0,0-5.574,4.258c-.579.6-1,1.092-1.272,1.43l-.311.39a.786.786,0,0,1-.114.127,14.742,14.742,0,0,1,1.631-2.009,23.68,23.68,0,0,1,5.561-4.337,35.68,35.68,0,0,1,9.793-3.675c1.921-.439,3.947-.8,6.091-1.092a49.9,49.9,0,0,1,6.631-.491,30.176,30.176,0,0,1,6.613.689,22.465,22.465,0,0,1,5.8,2.193,17.634,17.634,0,0,1,4.442,3.412,14.437,14.437,0,0,1,2.68,4.078,13.157,13.157,0,0,1,1.061,6.929,11.188,11.188,0,0,1-.439,1.873c-.07.2-.123.355-.167.474A.928.928,0,0,1,404.587,363.586Z" transform="translate(-12.671 -107.534)" fill="#263238"/>
      <path id="Path_16697" data-name="Path 16697" d="M444.126,364.275c-.026,0,.092-.276.215-.776a5.675,5.675,0,0,0,.066-2.193,9.012,9.012,0,0,0-1.07-3.044,10.4,10.4,0,0,0-1.061-1.6,9.623,9.623,0,0,0-1.425-1.478,12.449,12.449,0,0,0-3.421-2,16.093,16.093,0,0,0-3.14-.877,20.543,20.543,0,0,0-2.193-.25,6.443,6.443,0,0,1-.807-.061.7.7,0,0,1,.211,0h.6a16.382,16.382,0,0,1,2.193.18,15.167,15.167,0,0,1,3.193.82,12.5,12.5,0,0,1,3.508,2.022,10.048,10.048,0,0,1,1.456,1.513,10.967,10.967,0,0,1,1.066,1.636,8.727,8.727,0,0,1,1.044,3.122,5.4,5.4,0,0,1-.136,2.219,3.156,3.156,0,0,1-.21.566A.771.771,0,0,1,444.126,364.275Z" transform="translate(-55.521 -112.134)" fill="#f5f5f5"/>
      <g id="Group_3988" data-name="Group 3988" transform="translate(377.339 236.8)" opacity="0.4">
        <path id="Path_16698" data-name="Path 16698" d="M434.87,345.038a23.041,23.041,0,0,1,8.661,3.508,15.309,15.309,0,0,1,5.8,7.21,12.645,12.645,0,0,1-.232,9.319l4.065.338a14.927,14.927,0,0,0-3.408-13.74,20.173,20.173,0,0,0-14.889-6.653" transform="translate(-434.87 -345.02)"/>
      </g>
      <rect id="Rectangle_2085" data-name="Rectangle 2085" width="43.087" height="30.746" rx="8.58" transform="translate(336.716 201.12)" fill="#455a64"/>
      <path id="Path_16699" data-name="Path 16699" d="M385.091,279.154c0,.066-9.687.114-21.633.114s-21.638-.048-21.638-.114,9.683-.114,21.638-.114S385.091,279.093,385.091,279.154Z" transform="translate(-5.288 -71.175)" fill="#263238"/>
      <path id="Path_16700" data-name="Path 16700" d="M432.266,338.264c0,.061-12.933.114-28.878.114s-28.878-.053-28.878-.114,12.928-.114,28.878-.114S432.266,338.2,432.266,338.264Z" transform="translate(-23.642 -104.363)" fill="#263238"/>
      <path id="Path_16701" data-name="Path 16701" d="M471.988,326.308a4.973,4.973,0,0,0,1.044-2.579c.088-1.443-.57-3.25-2.127-3.25H451.038a5.828,5.828,0,0,0-5.828,5.828Z" transform="translate(-63.336 -94.442)" fill="#455a64"/>
      <path id="Path_16702" data-name="Path 16702" d="M561.049,261.258l-3.456-7.205a4.385,4.385,0,0,1,1.754-5.635l10.332-6.162a3.464,3.464,0,0,1,1.785-.5H573.7l.877,14.564-3.438,1.329,2.193,3.543Z" transform="translate(-126.203 -50.244)" fill="#088fff"/>
      <path id="Path_16703" data-name="Path 16703" d="M594.91,243s3.535.811,3.978,6.258-3.118,7.148-3.118,7.148Z" transform="translate(-147.386 -50.94)" fill="#ebebeb"/>
      <path id="Path_16704" data-name="Path 16704" d="M557.419,262.636s-7.144,3.386-8.017,3.947a1.664,1.664,0,0,0-.649,2.25c.807,2.022,4.149.118,4.149.118l6.653-3.324s2.557-1.206,1.609-2.719C560.107,261.215,557.419,262.636,557.419,262.636Z" transform="translate(-121.368 -61.652)" fill="#263238"/>
      <path id="Path_16705" data-name="Path 16705" d="M545.168,260.54s6.714,1.149,7.284,1.316,2.807,1.215,2.921,1.9a20.5,20.5,0,0,1,0,2.7s-.4.329-.658-.329a6.914,6.914,0,0,1-.215-1.965l-1.254-.482.684,1.215.114,2.851s-.877-.079-1.044-.763a6.653,6.653,0,0,1-.167-1.438l-.917-.776.684.925.232,2.052s-.667.215-.877-.241a7.042,7.042,0,0,1-.228-1.811l-2.579-.9-1.706.952-2.684-1.491Z" transform="translate(-119.229 -60.788)" fill="#ffbe9d"/>
      <path id="Path_16706" data-name="Path 16706" d="M562.388,232.92c0,2.719-1.25,4.92-2.789,4.92s-2.789-2.193-2.789-4.92S558.055,228,559.6,228,562.388,230.193,562.388,232.92Z" transform="translate(-125.995 -42.519)" fill="#263238"/>
      <path id="Path_16707" data-name="Path 16707" d="M564.21,245.675l1.535,5.315a1.377,1.377,0,0,0,.715-1.57c-.386-1.82-.605-3.114-1.026-4.71-.053-.158-1.224.965-1.224.965" transform="translate(-130.15 -51.892)" fill="#263238"/>
      <g id="Group_3989" data-name="Group 3989" transform="translate(401.673 208.593)" opacity="0.4">
        <path id="Path_16708" data-name="Path 16708" d="M492.393,330.2c-.149-.439-.307-.877-.439-1.346s-.3-.877-.412-1.316a14.126,14.126,0,0,1-.386-2c-2.587,10.525,1.364,17.95,8.144,18.472,9.911.763,21.993,1.316,26.878.035,8.907-2.337,12.174-9.766,12.955-10.99s7.863-14.174,3.508-26.642A182.841,182.841,0,0,0,530.735,280.7l-7.205,2.421s1.316,6.14,3.408,13.525c2.3,8.1,5.381,20.77,5.206,28.181a22.366,22.366,0,0,1-4.135,12.406H495.27s-.7-.7-2.864-7.017" transform="translate(-490.357 -280.7)"/>
      </g>
      <path id="Path_16709" data-name="Path 16709" d="M336.58,377.58l.232-2.5,59.765,6.885a5.9,5.9,0,0,1,5.122,6.894l-.267,1.513L339.6,381.386A3.508,3.508,0,0,1,336.58,377.58Z" transform="translate(-2.337 -125.097)" fill="#088fff"/>
      <g id="Group_3990" data-name="Group 3990" transform="translate(334.227 249.983)" opacity="0.6">
        <path id="Path_16710" data-name="Path 16710" d="M336.58,377.58l.232-2.5,59.765,6.885a5.9,5.9,0,0,1,5.122,6.894l-.267,1.513L339.6,381.386A3.508,3.508,0,0,1,336.58,377.58Z" transform="translate(-336.564 -375.08)"/>
      </g>
      <g id="Group_3991" data-name="Group 3991" transform="translate(450.449 243.351)" opacity="0.3">
        <path id="Path_16711" data-name="Path 16711" d="M601.58,385.807s13.156-14.472,15.871-25.848a25.578,25.578,0,0,1,4.074.3S613.745,381.413,601.58,385.807Z" transform="translate(-601.58 -359.959)"/>
      </g>
      <path id="Path_16712" data-name="Path 16712" d="M616.388,348.34a2.116,2.116,0,0,1,.07.364c.035.241.105.6.149,1.057a16.118,16.118,0,0,1-.1,3.947,19.935,19.935,0,0,1-1.754,5.561,63.01,63.01,0,0,1-3.482,6.227,83.147,83.147,0,0,1-7.7,10.411c-1.07,1.267-1.956,2.276-2.57,2.969l-.71.794a3.067,3.067,0,0,1-.259.267,1.956,1.956,0,0,1,.224-.294l.68-.824,2.513-3.013a90.418,90.418,0,0,0,7.631-10.429,66.823,66.823,0,0,0,3.508-6.2,20.352,20.352,0,0,0,1.754-5.5,17.544,17.544,0,0,0,.171-3.894c-.031-.46-.088-.816-.105-1.061a1.948,1.948,0,0,1-.018-.386Z" transform="translate(-150.261 -110.084)" fill="#263238"/>
      <path id="Path_16713" data-name="Path 16713" d="M580.277,413.579a17.573,17.573,0,0,1-2.109-1.9,18.039,18.039,0,0,1-1.947-2.066A35.156,35.156,0,0,1,580.277,413.579Z" transform="translate(-136.893 -144.484)" fill="#263238"/>
      <path id="Path_16714" data-name="Path 16714" d="M496.43,413.215a6.091,6.091,0,0,1,.969-1.873,6.17,6.17,0,0,1,1.381-1.592c.048.048-.553.767-1.193,1.719S496.491,413.241,496.43,413.215Z" transform="translate(-92.094 -144.563)" fill="#263238"/>
      <path id="Path_16715" data-name="Path 16715" d="M430.772,419.621a8.832,8.832,0,0,0,1.794-2.28,7.85,7.85,0,0,0,.877-3,6.977,6.977,0,0,0-3.149-6.578,7.836,7.836,0,0,0-2.886-1.206,8.818,8.818,0,0,0-2.9-.039.844.844,0,0,1,.193-.057,4.783,4.783,0,0,1,.579-.114,6.881,6.881,0,0,1,2.158.053,7.846,7.846,0,0,1,2.973,1.188,7.087,7.087,0,0,1,3.241,6.793,7.845,7.845,0,0,1-.947,3.07,6.8,6.8,0,0,1-1.316,1.71,4.5,4.5,0,0,1-.439.382.821.821,0,0,1-.18.083Z" transform="translate(-51.714 -142.615)" fill="#263238"/>
      <path id="Path_16716" data-name="Path 16716" d="M388.652,420.838a9.423,9.423,0,0,1-.215-2.105,9.959,9.959,0,0,1,0-2.123,19.683,19.683,0,0,1,.2,4.228Z" transform="translate(-31.429 -148.414)" fill="#263238"/>
      <path id="Path_16717" data-name="Path 16717" d="M391.949,420.836a20.3,20.3,0,0,1-.539-4.236,10.317,10.317,0,0,1,.382,2.105,10.208,10.208,0,0,1,.158,2.131Z" transform="translate(-33.13 -148.409)" fill="#263238"/>
      <path id="Path_16718" data-name="Path 16718" d="M407.3,333.624c0,.061-7.267.114-16.226.114s-16.226-.053-16.226-.114,7.267-.114,16.226-.114S407.3,333.558,407.3,333.624Z" transform="translate(-23.833 -101.758)" fill="#263238"/>
      <path id="Path_16719" data-name="Path 16719" d="M395.044,286.154c-.066,0-.114-8.332-.114-18.586s.031-18.568.114-18.568.114,8.332.114,18.59S395.105,286.154,395.044,286.154Z" transform="translate(-35.107 -54.309)" fill="#263238"/>
      <path id="Path_16720" data-name="Path 16720" d="M384.99,286.095c-.061,0,.25-8.332.7-18.577s.877-18.572.921-18.568-.246,8.332-.693,18.577S385.073,286.1,384.99,286.095Z" transform="translate(-29.521 -54.281)" fill="#263238"/>
      <path id="Path_16721" data-name="Path 16721" d="M356.043,417.941a1.422,1.422,0,0,1-.193-.2c-.114-.132-.3-.32-.509-.588a16.836,16.836,0,0,1-1.618-2.377,18.169,18.169,0,0,1,.075-18.191,16.517,16.517,0,0,1,1.636-2.364c.21-.267.4-.439.517-.588s.189-.2.193-.189a1.107,1.107,0,0,1-.158.219c-.105.145-.285.338-.482.614a18.772,18.772,0,0,0-.092,22.818c.193.276.368.474.474.618A1.3,1.3,0,0,1,356.043,417.941Z" transform="translate(-10.621 -135.41)" fill="#455a64"/>
      <path id="Path_16722" data-name="Path 16722" d="M497.046,373.11l-.136.254-2.649,4.96-3.7,3.561,7.4,9.85,6.162-1.022s-.689-1.408-3.785-1.68l-1.171-5.885,4.346-6.736" transform="translate(-88.798 -123.991)" fill="#455a64"/>
      <path id="Path_16723" data-name="Path 16723" d="M490.58,392.179l7.4,9.85,6.162-1.022-.846-.811-5.056.553-6.868-9.328Z" transform="translate(-88.81 -134.271)" fill="#e0e0e0"/>
      <path id="Path_16724" data-name="Path 16724" d="M509.528,402.933c-.035.07-.439-.075-.877.022s-.794.346-.851.294.219-.465.8-.566S509.577,402.876,509.528,402.933Z" transform="translate(-98.474 -140.583)" fill="#263238"/>
      <path id="Path_16725" data-name="Path 16725" d="M508.69,399.292c-.053.053-.39-.263-.877-.281s-.877.276-.917.219.031-.136.189-.263a1.188,1.188,0,0,1,.737-.228,1.154,1.154,0,0,1,.719.276A.486.486,0,0,1,508.69,399.292Z" transform="translate(-97.964 -138.381)" fill="#263238"/>
      <path id="Path_16726" data-name="Path 16726" d="M508.2,394.837c-.061.048-.333-.272-.785-.351s-.816.127-.877.061.039-.127.2-.219a1.083,1.083,0,0,1,1.316.237C508.2,394.706,508.229,394.82,508.2,394.837Z" transform="translate(-97.758 -135.834)" fill="#263238"/>
      <path id="Path_16727" data-name="Path 16727" d="M511.562,390.633c-.066.035-.3-.285-.724-.469s-.811-.158-.829-.232.439-.254.943,0S511.636,390.611,511.562,390.633Z" transform="translate(-99.718 -133.362)" fill="#263238"/>
      <path id="Path_16728" data-name="Path 16728" d="M512.737,385.585c-.031.022-.272-.189-.645-.557l-.632-.653a2.017,2.017,0,0,1-.368-.439.5.5,0,0,1-.026-.382.382.382,0,0,1,.338-.254,1.123,1.123,0,0,1,.627.2,2.309,2.309,0,0,1,.439.364,2.135,2.135,0,0,1,.469.838,1.153,1.153,0,0,1,0,.877,6.581,6.581,0,0,0-.184-.8,2.193,2.193,0,0,0-.469-.724,2.006,2.006,0,0,0-.4-.307,1.021,1.021,0,0,0-.465-.162.114.114,0,0,0-.105.075.237.237,0,0,0,0,.18,1.937,1.937,0,0,0,.307.386l.6.7A2.629,2.629,0,0,1,512.737,385.585Z" transform="translate(-100.297 -129.712)" fill="#263238"/>
      <path id="Path_16729" data-name="Path 16729" d="M515.384,386.981c-.031,0-.061-.325.211-.75a1.561,1.561,0,0,1,1.754-.636.3.3,0,0,1,.131.206.368.368,0,0,1-.044.206.876.876,0,0,1-.189.232,2.93,2.93,0,0,1-.395.32,2.731,2.731,0,0,1-.772.36,1.263,1.263,0,0,1-.772.057c0-.044.285-.07.711-.241a3.069,3.069,0,0,0,.688-.382,2.794,2.794,0,0,0,.351-.307.7.7,0,0,0,.136-.162c.022-.061,0-.044,0-.057a.487.487,0,0,0-.189-.039,1.368,1.368,0,0,0-.232,0,1.535,1.535,0,0,0-.439.105,1.5,1.5,0,0,0-.61.439A5.455,5.455,0,0,0,515.384,386.981Z" transform="translate(-102.694 -130.963)" fill="#263238"/>
      <path id="Path_16730" data-name="Path 16730" d="M499.835,390.068a.741.741,0,1,1-.851-.61.741.741,0,0,1,.851.61Z" transform="translate(-93.179 -133.165)" fill="#e0e0e0"/>
      <path id="Path_16731" data-name="Path 16731" d="M556.55,382.417l1.978,12.841,15.994-2.377c-.325-1.513-9.052-3.35-9.052-3.35l-.93-8.28Z" transform="translate(-125.849 -128.561)" fill="#455a64"/>
      <path id="Path_16732" data-name="Path 16732" d="M564.9,400.153a.658.658,0,0,0-.342.811.64.64,0,0,0,.8.346.7.7,0,0,0,.355-.877.658.658,0,0,0-.877-.267" transform="translate(-130.322 -139.141)" fill="#e0e0e0"/>
      <path id="Path_16733" data-name="Path 16733" d="M560.869,409.209l-.149-1.316,15.389-1.794s.759.206.754.719Z" transform="translate(-128.19 -142.514)" fill="#e0e0e0"/>
      <path id="Path_16734" data-name="Path 16734" d="M575.743,399.8c0,.079-.373.171-.724.478s-.5.667-.579.649-.026-.491.4-.855S575.752,399.73,575.743,399.8Z" transform="translate(-135.876 -138.954)" fill="#263238"/>
      <path id="Path_16735" data-name="Path 16735" d="M580.337,400.844c.031.075-.289.254-.5.627s-.241.728-.32.737-.193-.439.083-.877S580.324,400.769,580.337,400.844Z" transform="translate(-138.69 -139.551)" fill="#263238"/>
      <path id="Path_16736" data-name="Path 16736" d="M584.174,403.283c-.07.031-.237-.346-.1-.8s.478-.684.522-.623-.149.325-.259.7S584.249,403.265,584.174,403.283Z" transform="translate(-141.273 -140.126)" fill="#263238"/>
      <path id="Path_16737" data-name="Path 16737" d="M574.377,395.373c0,.075-.395.022-.833.114s-.759.289-.811.228.241-.39.754-.5S574.408,395.3,574.377,395.373Z" transform="translate(-134.931 -136.387)" fill="#263238"/>
      <path id="Path_16738" data-name="Path 16738" d="M571.685,390.149a1.522,1.522,0,0,1-.8.114,3.672,3.672,0,0,1-.877-.132,3.76,3.76,0,0,1-.513-.162.876.876,0,0,1-.268-.154.333.333,0,0,1-.1-.408.439.439,0,0,1,.316-.232,1,1,0,0,1,.3,0,2.485,2.485,0,0,1,.526.1,2.908,2.908,0,0,1,.811.373c.439.289.592.561.566.583s-.25-.189-.667-.417a3.121,3.121,0,0,0-.776-.294,2.362,2.362,0,0,0-.482-.075c-.175,0-.32,0-.351.083s0,.039.031.088a.813.813,0,0,0,.2.11,4.716,4.716,0,0,0,.46.18,4.51,4.51,0,0,0,.82.18A5.655,5.655,0,0,1,571.685,390.149Z" transform="translate(-132.892 -133.005)" fill="#263238"/>
      <path id="Path_16739" data-name="Path 16739" d="M574.323,388.35a1.371,1.371,0,0,1-.329-.741,2.711,2.711,0,0,1,0-.877,2.989,2.989,0,0,1,.132-.517.666.666,0,0,1,.439-.478.381.381,0,0,1,.368.171,1.146,1.146,0,0,1,.127.285,1.785,1.785,0,0,1,.079.539,1.863,1.863,0,0,1-.219.877c-.25.439-.561.6-.57.574a3.306,3.306,0,0,0,.395-.658,1.83,1.83,0,0,0,.14-.789,1.549,1.549,0,0,0-.083-.46c-.048-.167-.132-.294-.193-.268a.573.573,0,0,0-.241.3,2.666,2.666,0,0,0-.136.465,2.962,2.962,0,0,0-.035.82C574.236,388.043,574.363,388.332,574.323,388.35Z" transform="translate(-135.623 -131.078)" fill="#263238"/>
      <path id="Path_16740" data-name="Path 16740" d="M510.3,314.316,496.59,344.2l9.056,5.438,18.963-35.956" transform="translate(-92.184 -90.624)" fill="#263238"/>
      <path id="Path_16741" data-name="Path 16741" d="M510.387,336.842l-9.837,1.579-5.89-35.145-29.1,2.109a7.089,7.089,0,0,1-2.289-.215c-8.17-2.241-7.065-12.661-6.276-14.332l40.263-1.153A8.569,8.569,0,0,1,506,297.066Z" transform="translate(-69.651 -77.15)" fill="#263238"/>
      <path id="Path_16742" data-name="Path 16742" d="M453.022,242.287l.145-14.858s-1.917-9.648-2.487-13.459c-.877-5.894-2.088-8.7,7.569-12.884l2.114-.816,3.267.044c3.894.294,8,3.815,8.1,6.14l3.767,33.492Z" transform="translate(-66.083 -26.949)" fill="#088fff"/>
      <path id="Path_16743" data-name="Path 16743" d="M455.244,210s-2.728,5.868-2.193,11.214l10.161,9.753c2.276,2.535,5.127,3.614,8.771,3.833l21.024,2.3.583-5.5L473.6,225.932c-.8-.149-1.2-.978-1.807-1.513L455.244,210" transform="translate(-67.7 -32.412)" fill="#088fff"/>
      <path id="Path_16744" data-name="Path 16744" d="M454.39,212.9a1.438,1.438,0,0,1,.4-.272,5.011,5.011,0,0,1,1.36-.382,7.017,7.017,0,0,1,2.272,0,2.355,2.355,0,0,1,.667.228,6.706,6.706,0,0,1,.618.439c.4.316.811.68,1.228,1.074.842.785,1.64,1.78,2.574,2.789s1.956,2.092,3.07,3.228,2.311,2.324,3.592,3.552c.645.614,1.316,1.237,2.013,1.846.355.289.706.632,1.044.952a2.526,2.526,0,0,0,1.162.684h0L494.42,232.7l.092.026v.1c-.039.39-.088.807-.132,1.232-.153,1.46-.307,2.908-.439,4.267v.114h-.114l-8.911-.991-4.21-.46-4.03-.408c-1.316-.145-2.583-.294-3.815-.474a17.177,17.177,0,0,1-3.535-.82,13.016,13.016,0,0,1-2.973-1.6c-.877-.618-1.7-1.263-2.46-1.9-3-2.561-5.21-4.855-6.74-6.416-.759-.785-1.342-1.4-1.732-1.824l-.439-.482-.145-.171s.057.048.162.154.259.268.439.469l1.754,1.8c1.548,1.539,3.771,3.815,6.78,6.355.759.627,1.57,1.267,2.451,1.877a13.114,13.114,0,0,0,2.947,1.57,17.159,17.159,0,0,0,3.508.8c1.232.175,2.5.325,3.811.465l4.03.395,4.21.46,8.9.969-.127.1c.145-1.359.3-2.807.439-4.271.048-.439.092-.842.132-1.232l.083.123-20-5.679h0a2.666,2.666,0,0,1-1.281-.741c-.355-.338-.675-.653-1.039-.956-.706-.614-1.368-1.241-2.013-1.855-1.281-1.232-2.473-2.43-3.583-3.57s-2.127-2.228-3.07-3.25-1.715-2.013-2.548-2.8a14.612,14.612,0,0,0-1.21-1.074,5.19,5.19,0,0,0-.605-.439,2.118,2.118,0,0,0-.636-.224,6.8,6.8,0,0,0-2.241-.035,5.065,5.065,0,0,0-1.355.346A3.068,3.068,0,0,0,454.39,212.9Z" transform="translate(-68.491 -33.625)" fill="#263238"/>
      <path id="Path_16745" data-name="Path 16745" d="M466.329,161.891l1.017,14.472a4.508,4.508,0,0,0,4.5,4.188h0a4.508,4.508,0,0,0,4.5-4.8c-.092-1.377-.171-2.5-.171-2.5a4.2,4.2,0,0,0,3.543-4.048c.026-2.022-.324-6.609-.623-10.126a4.592,4.592,0,0,0-4.592-4.2h-2.118a6.473,6.473,0,0,0-6.056,7.021Z" transform="translate(-75.18 -1.459)" fill="#ffbe9d"/>
      <path id="Path_16746" data-name="Path 16746" d="M482.975,194.984a8.161,8.161,0,0,1-4.565-1.294s1.079,2.517,4.574,2.193Z" transform="translate(-81.977 -23.255)" fill="#eb996e"/>
      <path id="Path_16747" data-name="Path 16747" d="M492.4,174.131a.5.5,0,0,1-.482.5.474.474,0,0,1-.517-.439.5.5,0,0,1,.482-.509A.482.482,0,0,1,492.4,174.131Z" transform="translate(-89.27 -12.024)" fill="#263238"/>
      <path id="Path_16748" data-name="Path 16748" d="M491.55,171.776c-.066.066-.439-.215-.982-.215s-.93.272-.991.206.035-.149.211-.272a1.351,1.351,0,0,1,.789-.246,1.316,1.316,0,0,1,.781.254C491.506,171.627,491.576,171.745,491.55,171.776Z" transform="translate(-88.236 -10.656)" fill="#263238"/>
      <path id="Path_16749" data-name="Path 16749" d="M480.88,174.131a.5.5,0,0,1-.482.5.474.474,0,0,1-.517-.439.5.5,0,0,1,.482-.509A.482.482,0,0,1,480.88,174.131Z" transform="translate(-82.802 -12.024)" fill="#263238"/>
      <path id="Path_16750" data-name="Path 16750" d="M479.457,172.006c-.061.066-.439-.215-.982-.215s-.93.272-.987.206.031-.149.206-.272a1.35,1.35,0,0,1,.789-.246,1.316,1.316,0,0,1,.781.25C479.457,171.857,479.505,171.975,479.457,172.006Z" transform="translate(-81.449 -10.785)" fill="#263238"/>
      <path id="Path_16751" data-name="Path 16751" d="M486.17,176.042a3.586,3.586,0,0,1,.877-.158c.136,0,.267-.044.289-.136a.658.658,0,0,0-.092-.408l-.412-1.044a17.661,17.661,0,0,1-.912-2.737,18.615,18.615,0,0,1,1.131,2.653l.386,1.052a.793.793,0,0,1,.075.539.346.346,0,0,1-.228.2.969.969,0,0,1-.232.031A3.508,3.508,0,0,1,486.17,176.042Z" transform="translate(-86.193 -10.83)" fill="#263238"/>
      <path id="Path_16752" data-name="Path 16752" d="M482.78,182.63c.088,0,.088.579.588.991s1.123.351,1.127.439-.14.11-.4.118a1.456,1.456,0,0,1-.939-.329,1.263,1.263,0,0,1-.439-.833C482.675,182.792,482.741,182.626,482.78,182.63Z" transform="translate(-84.387 -17.045)" fill="#263238"/>
      <path id="Path_16753" data-name="Path 16753" d="M479.185,167.354c-.053.145-.588.079-1.219.153s-1.145.25-1.228.118.053-.2.259-.342a2.122,2.122,0,0,1,1.864-.206C479.093,167.17,479.212,167.284,479.185,167.354Z" transform="translate(-81.024 -8.242)" fill="#263238"/>
      <path id="Path_16754" data-name="Path 16754" d="M491.27,168.2c-.092.123-.465,0-.908,0s-.825.079-.912-.048.022-.184.189-.3a1.241,1.241,0,0,1,.741-.2,1.268,1.268,0,0,1,.724.246C491.262,168.012,491.314,168.135,491.27,168.2Z" transform="translate(-88.158 -8.633)" fill="#263238"/>
      <path id="Path_16755" data-name="Path 16755" d="M466.066,176.737c-.061-.026-2.408-.715-2.329,1.68a1.8,1.8,0,0,0,2.465,1.754C466.206,180.1,466.066,176.737,466.066,176.737Z" transform="translate(-73.738 -13.674)" fill="#ffbe9d"/>
      <path id="Path_16756" data-name="Path 16756" d="M466.2,180.274a.714.714,0,0,1-.11.066.438.438,0,0,1-.311,0,1.031,1.031,0,0,1-.5-.908,1.386,1.386,0,0,1,.1-.6.487.487,0,0,1,.3-.333.215.215,0,0,1,.25.11c.035.066.022.114.035.118s.048-.044.026-.14a.258.258,0,0,0-.1-.149.311.311,0,0,0-.232-.053.579.579,0,0,0-.439.386,1.391,1.391,0,0,0-.123.671,1.074,1.074,0,0,0,.64,1.013.439.439,0,0,0,.377-.075C466.2,180.331,466.2,180.279,466.2,180.274Z" transform="translate(-74.494 -14.659)" fill="#eb996e"/>
      <path id="Path_16757" data-name="Path 16757" d="M465.442,163.816a1.263,1.263,0,0,1,1.153.592c.153.342.189.728.342,1.07a.877.877,0,0,0,.877.566.737.737,0,0,0,.5-.548,1.987,1.987,0,0,0,0-.772c-.14-1.118-.373-2.223-.417-3.35a5.7,5.7,0,0,1,.706-3.254,3.131,3.131,0,0,1,2.8-1.574c.746.061,1.425.439,2.166.553a2.93,2.93,0,0,0,2.43-.811,4.863,4.863,0,0,1,.439-.329,1.355,1.355,0,0,0-.25-.737,7.078,7.078,0,0,0-10.63,2.421c-.833,1.816-.588,4.337-.127,6.175" transform="translate(-74.451 -0.836)" fill="#263238"/>
      <path id="Path_16758" data-name="Path 16758" d="M477.953,157.068s-9.183-2.956-13.156,4.991a14.816,14.816,0,0,1-.6-3.07,6.833,6.833,0,0,1,4.789-6.284C468.989,152.722,475.563,150.214,477.953,157.068Z" transform="translate(-73.998)" fill="#354a5c"/>
      <path id="Path_16759" data-name="Path 16759" d="M477.313,161.567a2,2,0,0,0,3.184.289,1.175,1.175,0,0,0,2.223-.114,2.723,2.723,0,0,0,.877.653.912.912,0,0,0,1.022-.215.877.877,0,0,0-.066-1.053,2.141,2.141,0,0,0-.93-.627,6.732,6.732,0,0,0-3.465-.526,4.679,4.679,0,0,0-3.039,1.653" transform="translate(-81.253 -4.302)" fill="#263238"/>
      <path id="Path_16761" data-name="Path 16761" d="M466.43,161.4a17.293,17.293,0,0,1,5.35-5.122,33.694,33.694,0,0,1,8.008-3.263A5.227,5.227,0,0,1,482,152.78a2,2,0,0,1,1.64,1.342c.228.908-1.381,2.307-2.14,2.855a24.212,24.212,0,0,1-2.3,1.359s.022-1.684-2.671-2.03C472.872,155.836,466.43,161.4,466.43,161.4Z" transform="translate(-75.251 -0.268)" fill="#021d33"/>
      <g id="Group_3993" data-name="Group 3993" transform="translate(387.947 190.972)" opacity="0.3">
        <path id="Path_16762" data-name="Path 16762" d="M459.06,240.52a43.008,43.008,0,0,0,3.276,7.161,12.63,12.63,0,0,0,5.486,4.824,11.845,11.845,0,0,0,9.109.167c.232-.1.689-.228.645-.478,0,0-.943-.11-1.237-.158-5.758-.956-6.385-1.658-9.144-3.85-1.719-1.355-5.53-5.464-8.135-7.666" transform="translate(-459.06 -240.52)"/>
      </g>
      <path id="Path_16763" data-name="Path 16763" d="M484.2,278.46a2.4,2.4,0,0,1-.241.535,6.689,6.689,0,0,1-.93,1.316,10.086,10.086,0,0,1-4.451,2.715,20.406,20.406,0,0,1-5.192.776c-.671.026-1.215.031-1.587.031a3.394,3.394,0,0,1-.583-.026,2.569,2.569,0,0,1,.579-.066l1.583-.1a22.721,22.721,0,0,0,5.135-.833,10.438,10.438,0,0,0,4.412-2.631,11.243,11.243,0,0,0,1.276-1.715Z" transform="translate(-77.934 -70.85)" fill="#263238"/>
      <path id="Path_16764" data-name="Path 16764" d="M527.229,356.733a.438.438,0,0,1-.035-.136,2.542,2.542,0,0,0-.079-.4c-.066-.368-.162-.877-.281-1.552-.241-1.368-.579-3.32-1-5.727-.82-4.85-1.952-11.529-3.2-18.906-.557-3.342-1.088-6.534-1.574-9.451l.114.092-12.591.908-3.614.246-.965.057h-.25l.25-.031.961-.088,3.609-.307,12.582-1h.1v.1c.491,2.916,1.031,6.109,1.592,9.446,1.224,7.381,2.329,14.064,3.136,18.919.386,2.412.7,4.385.925,5.736l.237,1.566c.026.167.044.3.057.4A.571.571,0,0,1,527.229,356.733Z" transform="translate(-96.159 -94.414)" fill="#455a64"/>
      <path id="Path_16765" data-name="Path 16765" d="M546.246,313.54c.039.053-.728.71-1.6,1.6s-1.517,1.662-1.57,1.618a10.448,10.448,0,0,1,3.166-3.215Z" transform="translate(-118.286 -90.545)" fill="#455a64"/>
      <path id="Path_16766" data-name="Path 16766" d="M477.084,203.052a.734.734,0,0,1,.053.145,2.055,2.055,0,0,1,.083.439,3.6,3.6,0,0,1-.21,1.6,4.088,4.088,0,0,1-1.447,1.895,4.385,4.385,0,0,1-2.811.754,5.078,5.078,0,0,1-2.732-1.026,5.8,5.8,0,0,1-1.552-1.811,6.262,6.262,0,0,1-.6-1.491,4.227,4.227,0,0,1-.088-.439.43.43,0,0,1,0-.154,9.952,9.952,0,0,0,.829,1.991,6.013,6.013,0,0,0,1.539,1.723,4.969,4.969,0,0,0,2.631.965,4.258,4.258,0,0,0,2.68-.7,4.043,4.043,0,0,0,1.412-1.78,3.724,3.724,0,0,0,.276-1.531C477.119,203.263,477.084,203.061,477.084,203.052Z" transform="translate(-76.007 -28.46)" fill="#263238"/>
      <path id="Path_16767" data-name="Path 16767" d="M501.366,231.827a1.836,1.836,0,0,1-.1-.439c-.048-.346-.105-.767-.175-1.254-.145-1.118-.333-2.557-.539-4.149s-.355-3.07-.439-4.157c-.048-.531-.079-.965-.1-1.263a1.728,1.728,0,0,1,0-.465,2.161,2.161,0,0,1,.092.439c.048.346.105.763.171,1.254.14,1.118.32,2.557.518,4.149s.368,3.07.474,4.153c.048.535.083.965.105,1.267a1.991,1.991,0,0,1-.013.465Z" transform="translate(-94.101 -38.083)" fill="#263238"/>
      <path id="Path_16768" data-name="Path 16768" d="M237.427,72.561a14.446,14.446,0,0,1,3.875-1.2,4.875,4.875,0,0,0-1.25-.625,8.716,8.716,0,0,0-2.823.9Z" transform="translate(159.848 81.88)" fill="#e0e0e0"/>
    </g>
  </g>
</svg>
