<svg id="Group_3905" data-name="Group 3905" xmlns="http://www.w3.org/2000/svg" width="155.357" height="159.906" viewBox="0 0 155.357 159.906">
  <g id="Group_3891" data-name="Group 3891" transform="translate(0)">
    <path id="Path_14868" data-name="Path 14868" d="M184.877,101.019l-.923-1.524A40.229,40.229,0,0,0,147.237,79.87a39.479,39.479,0,0,0-5.685.781,42.25,42.25,0,0,0-30.11,26.173c-2.865,7.687-3.664,16.54-9.1,22.643-7.071,7.926-19.076,8.184-29.632,7.855s-22.568-.049-29.606,7.915c-4.408,4.994-5.808,12.1-5.453,18.785.941,17.705,13.283,33.539,28.971,41.409s34.166,8.572,51.337,5.11c24.059-4.856,46.937-18.165,60.687-38.735S195.881,123.221,184.877,101.019Z" transform="translate(-37.599 -66.617)" fill="#58b3ff" opacity="0.2"/>
    <ellipse id="Ellipse_682" data-name="Ellipse 682" cx="8.651" cy="8.651" rx="8.651" ry="8.651" transform="translate(138.055)" fill="#58b3ff" opacity="0.2"/>
  </g>
  <g id="Group_3902" data-name="Group 3902" transform="translate(17.927 21.863)">
    <g id="Group_3889" data-name="Group 3889" transform="translate(71.246 76.447)">
      <g id="Group_3888" data-name="Group 3888" transform="translate(2.165 0)">
        <rect id="Rectangle_1820" data-name="Rectangle 1820" width="40.159" height="7.291" transform="translate(5.933 0.167)" fill="#088fff"/>
        <path id="Path_14870" data-name="Path 14870" d="M66.307,445.813a39.347,39.347,0,0,1,0-7.233A39.346,39.346,0,0,1,66.307,445.813Z" transform="translate(-56.44 -438.304)" fill="#263238"/>
        <path id="Path_14871" data-name="Path 14871" d="M62.907,445.813a39.345,39.345,0,0,1,0-7.233,39.345,39.345,0,0,1,0,7.233Z" transform="translate(-55.218 -438.304)" fill="#263238"/>
        <path id="Path_14872" data-name="Path 14872" d="M73.837,445.813a39.343,39.343,0,0,1,0-7.233A39.347,39.347,0,0,1,73.837,445.813Z" transform="translate(-59.145 -438.304)" fill="#263238"/>
        <path id="Path_14873" data-name="Path 14873" d="M70.413,445.813a37.9,37.9,0,0,1,0-7.233A39.344,39.344,0,0,1,70.413,445.813Z" transform="translate(-57.913 -438.304)" fill="#263238"/>
        <path id="Path_14874" data-name="Path 14874" d="M81.373,445.813a37.9,37.9,0,0,1,0-7.233A39.346,39.346,0,0,1,81.373,445.813Z" transform="translate(-61.851 -438.304)" fill="#263238"/>
        <path id="Path_14875" data-name="Path 14875" d="M77.907,445.813a39.343,39.343,0,0,1,0-7.233,39.344,39.344,0,0,1,0,7.233Z" transform="translate(-60.608 -438.304)" fill="#263238"/>
        <path id="Path_14876" data-name="Path 14876" d="M88.907,445.813a39.343,39.343,0,0,1,0-7.233A39.346,39.346,0,0,1,88.907,445.813Z" transform="translate(-64.56 -438.304)" fill="#263238"/>
        <path id="Path_14877" data-name="Path 14877" d="M85.477,445.813a39.346,39.346,0,0,1,0-7.233A39.346,39.346,0,0,1,85.477,445.813Z" transform="translate(-63.328 -438.304)" fill="#263238"/>
        <path id="Path_14878" data-name="Path 14878" d="M96.437,445.813a39.343,39.343,0,0,1,0-7.233A39.346,39.346,0,0,1,96.437,445.813Z" transform="translate(-67.266 -438.304)" fill="#263238"/>
        <path id="Path_14879" data-name="Path 14879" d="M93.007,445.813a39.345,39.345,0,0,1,0-7.233,39.345,39.345,0,0,1,0,7.233Z" transform="translate(-66.033 -438.304)" fill="#263238"/>
        <path id="Path_14880" data-name="Path 14880" d="M103.967,445.813a39.345,39.345,0,0,1,0-7.233A39.345,39.345,0,0,1,103.967,445.813Z" transform="translate(-69.971 -438.304)" fill="#263238"/>
        <path id="Path_14881" data-name="Path 14881" d="M100.537,445.813a39.344,39.344,0,0,1,0-7.233,39.343,39.343,0,0,1,0,7.233Z" transform="translate(-68.739 -438.304)" fill="#263238"/>
        <path id="Path_14882" data-name="Path 14882" d="M111.5,445.813a39.343,39.343,0,0,1,0-7.233A39.347,39.347,0,0,1,111.5,445.813Z" transform="translate(-72.677 -438.304)" fill="#263238"/>
        <path id="Path_14883" data-name="Path 14883" d="M108.067,445.813a39.345,39.345,0,0,1,0-7.233A39.346,39.346,0,0,1,108.067,445.813Z" transform="translate(-71.445 -438.304)" fill="#263238"/>
        <path id="Path_14884" data-name="Path 14884" d="M119.027,445.813a39.345,39.345,0,0,1,0-7.233,39.347,39.347,0,0,1,0,7.233Z" transform="translate(-75.383 -438.304)" fill="#263238"/>
        <path id="Path_14885" data-name="Path 14885" d="M115.6,445.813a39.343,39.343,0,0,1,0-7.233A37.9,37.9,0,0,1,115.6,445.813Z" transform="translate(-74.15 -438.304)" fill="#263238"/>
        <path id="Path_14886" data-name="Path 14886" d="M100.261,438.317c0,.09-9.053.167-20.22.167s-20.22-.077-20.22-.167,9.053-.167,20.22-.167S100.261,438.22,100.261,438.317Z" transform="translate(-54.169 -438.15)" fill="#263238"/>
        <rect id="Rectangle_1821" data-name="Rectangle 1821" width="40.159" height="7.291" transform="translate(2.787 7.4)" fill="#088fff"/>
        <path id="Path_14887" data-name="Path 14887" d="M61.4,457.1a39.343,39.343,0,0,1,0-7.233A39.345,39.345,0,0,1,61.4,457.1Z" transform="translate(-54.676 -442.361)" fill="#263238"/>
        <path id="Path_14888" data-name="Path 14888" d="M57.967,457.1a39.344,39.344,0,0,1,0-7.233A39.344,39.344,0,0,1,57.967,457.1Z" transform="translate(-53.443 -442.361)" fill="#263238"/>
        <path id="Path_14889" data-name="Path 14889" d="M68.907,457.1a39.344,39.344,0,0,1,0-7.233A39.345,39.345,0,0,1,68.907,457.1Z" transform="translate(-57.374 -442.361)" fill="#263238"/>
        <path id="Path_14890" data-name="Path 14890" d="M65.5,457.1a39.347,39.347,0,0,1,0-7.233A39.345,39.345,0,0,1,65.5,457.1Z" transform="translate(-56.149 -442.361)" fill="#263238"/>
        <path id="Path_14891" data-name="Path 14891" d="M76.457,457.1a39.341,39.341,0,0,1,0-7.233A39.345,39.345,0,0,1,76.457,457.1Z" transform="translate(-60.087 -442.361)" fill="#263238"/>
        <path id="Path_14892" data-name="Path 14892" d="M73.027,457.1a39.345,39.345,0,0,1,0-7.233,39.346,39.346,0,0,1,0,7.233Z" transform="translate(-58.854 -442.361)" fill="#263238"/>
        <path id="Path_14893" data-name="Path 14893" d="M83.987,457.1a39.344,39.344,0,0,1,0-7.233A39.343,39.343,0,0,1,83.987,457.1Z" transform="translate(-62.792 -442.361)" fill="#263238"/>
        <path id="Path_14894" data-name="Path 14894" d="M80.557,457.1a39.343,39.343,0,0,1,0-7.233A37.9,37.9,0,0,1,80.557,457.1Z" transform="translate(-61.56 -442.361)" fill="#263238"/>
        <path id="Path_14895" data-name="Path 14895" d="M91.523,457.1a37.9,37.9,0,0,1,0-7.233A39.347,39.347,0,0,1,91.523,457.1Z" transform="translate(-65.498 -442.361)" fill="#263238"/>
        <path id="Path_14896" data-name="Path 14896" d="M88.1,457.1a39.343,39.343,0,0,1,0-7.233A39.345,39.345,0,0,1,88.1,457.1Z" transform="translate(-64.269 -442.361)" fill="#263238"/>
        <path id="Path_14897" data-name="Path 14897" d="M99.057,457.1a39.342,39.342,0,0,1,0-7.233,39.345,39.345,0,0,1,0,7.233Z" transform="translate(-68.207 -442.361)" fill="#263238"/>
        <path id="Path_14898" data-name="Path 14898" d="M95.627,457.1a39.343,39.343,0,0,1,0-7.233A39.347,39.347,0,0,1,95.627,457.1Z" transform="translate(-66.975 -442.361)" fill="#263238"/>
        <path id="Path_14899" data-name="Path 14899" d="M106.587,457.1a39.343,39.343,0,0,1,0-7.233,39.344,39.344,0,0,1,0,7.233Z" transform="translate(-70.913 -442.361)" fill="#263238"/>
        <path id="Path_14900" data-name="Path 14900" d="M103.157,457.1a39.344,39.344,0,0,1,0-7.233A39.345,39.345,0,0,1,103.157,457.1Z" transform="translate(-69.68 -442.361)" fill="#263238"/>
        <path id="Path_14901" data-name="Path 14901" d="M114.117,457.1a39.344,39.344,0,0,1,0-7.233,39.344,39.344,0,0,1,0,7.233Z" transform="translate(-73.618 -442.361)" fill="#263238"/>
        <path id="Path_14902" data-name="Path 14902" d="M110.687,457.1a39.343,39.343,0,0,1,0-7.233A39.345,39.345,0,0,1,110.687,457.1Z" transform="translate(-72.386 -442.361)" fill="#263238"/>
        <path id="Path_14903" data-name="Path 14903" d="M95.374,449.607c0,.09-9.034.167-20.175.167s-20.169-.077-20.169-.167,9.027-.167,20.169-.167S95.374,449.517,95.374,449.607Z" transform="translate(-52.448 -442.207)" fill="#263238"/>
        <rect id="Rectangle_1822" data-name="Rectangle 1822" width="40.159" height="7.291" transform="translate(0.205 14.742)" fill="#def128"/>
        <path id="Path_14904" data-name="Path 14904" d="M57.367,468.563a39.345,39.345,0,0,1,0-7.233,39.346,39.346,0,0,1,0,7.233Z" transform="translate(-53.228 -446.479)" fill="#263238"/>
        <path id="Path_14905" data-name="Path 14905" d="M53.907,468.563a39.344,39.344,0,0,1,0-7.233,39.346,39.346,0,0,1,0,7.233Z" transform="translate(-51.984 -446.479)" fill="#263238"/>
        <path id="Path_14906" data-name="Path 14906" d="M64.907,468.563a39.346,39.346,0,0,1,0-7.233,39.346,39.346,0,0,1,0,7.233Z" transform="translate(-55.937 -446.479)" fill="#263238"/>
        <path id="Path_14907" data-name="Path 14907" d="M61.467,468.563a39.346,39.346,0,0,1,0-7.233A37.9,37.9,0,0,1,61.467,468.563Z" transform="translate(-54.701 -446.479)" fill="#263238"/>
        <path id="Path_14908" data-name="Path 14908" d="M72.427,468.563a39.343,39.343,0,0,1,0-7.233A37.9,37.9,0,0,1,72.427,468.563Z" transform="translate(-58.639 -446.479)" fill="#263238"/>
        <path id="Path_14909" data-name="Path 14909" d="M69.007,468.563a39.346,39.346,0,0,1,0-7.233A39.346,39.346,0,0,1,69.007,468.563Z" transform="translate(-57.41 -446.479)" fill="#263238"/>
        <path id="Path_14910" data-name="Path 14910" d="M79.967,468.563a39.344,39.344,0,0,1,0-7.233,39.346,39.346,0,0,1,0,7.233Z" transform="translate(-61.348 -446.479)" fill="#263238"/>
        <path id="Path_14911" data-name="Path 14911" d="M76.537,468.563a39.344,39.344,0,0,1,0-7.233A39.347,39.347,0,0,1,76.537,468.563Z" transform="translate(-60.116 -446.479)" fill="#263238"/>
        <path id="Path_14912" data-name="Path 14912" d="M87.5,468.563a39.346,39.346,0,0,1,0-7.233,39.346,39.346,0,0,1,0,7.233Z" transform="translate(-64.054 -446.479)" fill="#263238"/>
        <path id="Path_14913" data-name="Path 14913" d="M84.067,468.563a39.344,39.344,0,0,1,0-7.233,39.345,39.345,0,0,1,0,7.233Z" transform="translate(-62.821 -446.479)" fill="#263238"/>
        <path id="Path_14914" data-name="Path 14914" d="M95.027,468.563a39.343,39.343,0,0,1,0-7.233,39.349,39.349,0,0,1,0,7.233Z" transform="translate(-66.759 -446.479)" fill="#263238"/>
        <path id="Path_14915" data-name="Path 14915" d="M91.6,468.563a39.343,39.343,0,0,1,0-7.233,39.345,39.345,0,0,1,0,7.233Z" transform="translate(-65.527 -446.479)" fill="#263238"/>
        <path id="Path_14916" data-name="Path 14916" d="M102.557,468.563a39.343,39.343,0,0,1,0-7.233,39.348,39.348,0,0,1,0,7.233Z" transform="translate(-69.465 -446.479)" fill="#263238"/>
        <path id="Path_14917" data-name="Path 14917" d="M99.127,468.563a39.346,39.346,0,0,1,0-7.233,39.345,39.345,0,0,1,0,7.233Z" transform="translate(-68.232 -446.479)" fill="#263238"/>
        <path id="Path_14918" data-name="Path 14918" d="M110.087,468.563a39.344,39.344,0,0,1,0-7.233,39.345,39.345,0,0,1,0,7.233Z" transform="translate(-72.17 -446.479)" fill="#263238"/>
        <path id="Path_14919" data-name="Path 14919" d="M106.657,468.563a39.344,39.344,0,0,1,0-7.233,39.345,39.345,0,0,1,0,7.233Z" transform="translate(-70.938 -446.479)" fill="#263238"/>
        <path id="Path_14920" data-name="Path 14920" d="M91.364,461.067c0,.1-9.034.167-20.169.167S51,461.163,51,461.067s9.027-.167,20.175-.167S91.364,460.964,91.364,461.067Z" transform="translate(-51 -446.324)" fill="#263238"/>
        <g id="Group_3871" data-name="Group 3871" transform="translate(8.239 7.47)" opacity="0.3">
          <path id="Path_14921" data-name="Path 14921" d="M63.86,449.81a61.372,61.372,0,0,0,18.58,1.352c6.157-.41,12.385-1.313,18.58-1.243Z" transform="translate(-63.86 -449.81)"/>
        </g>
        <g id="Group_3872" data-name="Group 3872" transform="translate(0.698 14.838)" opacity="0.3">
          <path id="Path_14922" data-name="Path 14922" d="M52.09,461.31a61.328,61.328,0,0,0,18.58,1.345c6.163-.41,12.385-1.313,18.58-1.237Z" transform="translate(-52.09 -461.31)"/>
        </g>
        <path id="Path_14923" data-name="Path 14923" d="M61.866,438.993c0,.09-.224.167-.5.167s-.506-.077-.506-.167.224-.173.506-.173S61.866,438.9,61.866,438.993Z" transform="translate(-54.543 -438.391)" fill="#fff"/>
        <path id="Path_14924" data-name="Path 14924" d="M68.553,439.014a8.228,8.228,0,0,1-2.307.167,8.227,8.227,0,0,1-2.306-.167,7.951,7.951,0,0,1,2.306-.167,7.95,7.95,0,0,1,2.306.167Z" transform="translate(-55.649 -438.393)" fill="#fff"/>
        <path id="Path_14925" data-name="Path 14925" d="M78.5,439.014a8.228,8.228,0,0,1-2.306.167,8.2,8.2,0,0,1-2.3-.167,7.917,7.917,0,0,1,2.3-.167,7.95,7.95,0,0,1,2.306.167Z" transform="translate(-59.225 -438.393)" fill="#fff"/>
      </g>
      <rect id="Rectangle_1823" data-name="Rectangle 1823" width="43.202" height="7.849" transform="translate(3.037 22.085)" fill="#088fff"/>
      <path id="Path_14926" data-name="Path 14926" d="M410.509,418.918a42.238,42.238,0,0,1,0-7.778,42.246,42.246,0,0,1,0,7.778Z" transform="translate(-403.238 -388.933)" fill="#263238"/>
      <path id="Path_14927" data-name="Path 14927" d="M406.819,418.918a42.241,42.241,0,0,1,0-7.778A42.241,42.241,0,0,1,406.819,418.918Z" transform="translate(-401.912 -388.933)" fill="#263238"/>
      <path id="Path_14928" data-name="Path 14928" d="M418.609,418.918a42.238,42.238,0,0,1,0-7.778,42.243,42.243,0,0,1,0,7.778Z" transform="translate(-406.148 -388.933)" fill="#263238"/>
      <path id="Path_14929" data-name="Path 14929" d="M414.9,418.918a42.249,42.249,0,0,1,0-7.778A40.793,40.793,0,0,1,414.9,418.918Z" transform="translate(-404.815 -388.933)" fill="#263238"/>
      <path id="Path_14930" data-name="Path 14930" d="M426.716,418.918a40.8,40.8,0,0,1,0-7.778A42.243,42.243,0,0,1,426.716,418.918Z" transform="translate(-409.058 -388.933)" fill="#263238"/>
      <path id="Path_14931" data-name="Path 14931" d="M423.029,418.918a42.227,42.227,0,0,1,0-7.778A42.243,42.243,0,0,1,423.029,418.918Z" transform="translate(-407.736 -388.933)" fill="#263238"/>
      <path id="Path_14932" data-name="Path 14932" d="M434.819,418.918a42.243,42.243,0,0,1,0-7.778A42.233,42.233,0,0,1,434.819,418.918Z" transform="translate(-411.972 -388.933)" fill="#263238"/>
      <path id="Path_14933" data-name="Path 14933" d="M431.129,418.918a42.246,42.246,0,0,1,0-7.778,42.243,42.243,0,0,1,0,7.778Z" transform="translate(-410.647 -388.933)" fill="#263238"/>
      <path id="Path_14934" data-name="Path 14934" d="M442.9,418.918a42.243,42.243,0,0,1,0-7.778A42.243,42.243,0,0,1,442.9,418.918Z" transform="translate(-414.876 -388.933)" fill="#263238"/>
      <path id="Path_14935" data-name="Path 14935" d="M439.229,418.918a42.235,42.235,0,0,1,0-7.778A42.241,42.241,0,0,1,439.229,418.918Z" transform="translate(-413.557 -388.933)" fill="#263238"/>
      <path id="Path_14936" data-name="Path 14936" d="M451.019,418.918a42.233,42.233,0,0,1,0-7.778A42.243,42.243,0,0,1,451.019,418.918Z" transform="translate(-417.793 -388.933)" fill="#263238"/>
      <path id="Path_14937" data-name="Path 14937" d="M447.329,418.918a42.241,42.241,0,0,1,0-7.778A40.8,40.8,0,0,1,447.329,418.918Z" transform="translate(-416.467 -388.933)" fill="#263238"/>
      <path id="Path_14938" data-name="Path 14938" d="M459.129,418.918a42.243,42.243,0,0,1,0-7.778,42.243,42.243,0,0,1,0,7.778Z" transform="translate(-420.707 -388.933)" fill="#263238"/>
      <path id="Path_14939" data-name="Path 14939" d="M455.439,418.918a42.238,42.238,0,0,1,0-7.778A42.246,42.246,0,0,1,455.439,418.918Z" transform="translate(-419.381 -388.933)" fill="#263238"/>
      <path id="Path_14940" data-name="Path 14940" d="M467.229,418.918a42.233,42.233,0,0,1,0-7.778A42.233,42.233,0,0,1,467.229,418.918Z" transform="translate(-423.617 -388.933)" fill="#263238"/>
      <path id="Path_14941" data-name="Path 14941" d="M463.539,418.918a42.243,42.243,0,0,1,0-7.778A42.243,42.243,0,0,1,463.539,418.918Z" transform="translate(-422.292 -388.933)" fill="#263238"/>
      <path id="Path_14942" data-name="Path 14942" d="M447.1,410.9c0,.1-9.719.179-21.707.179s-21.7-.077-21.7-.179,9.713-.179,21.7-.179S447.1,410.771,447.1,410.9Z" transform="translate(-400.852 -388.783)" fill="#263238"/>
      <rect id="Rectangle_1824" data-name="Rectangle 1824" width="43.202" height="7.849" transform="translate(0.211 30.055)" fill="#088fff"/>
      <path id="Path_14943" data-name="Path 14943" d="M406.1,431.354a42.29,42.29,0,0,1,0-7.784,42.285,42.285,0,0,1,0,7.784Z" transform="translate(-401.653 -393.4)" fill="#263238"/>
      <path id="Path_14944" data-name="Path 14944" d="M402.409,431.354a42.279,42.279,0,0,1,0-7.784A42.29,42.29,0,0,1,402.409,431.354Z" transform="translate(-400.327 -393.4)" fill="#263238"/>
      <path id="Path_14945" data-name="Path 14945" d="M414.2,431.354a42.279,42.279,0,0,1,0-7.784A42.279,42.279,0,0,1,414.2,431.354Z" transform="translate(-404.563 -393.4)" fill="#263238"/>
      <path id="Path_14946" data-name="Path 14946" d="M410.509,431.354a42.287,42.287,0,0,1,0-7.784,42.287,42.287,0,0,1,0,7.784Z" transform="translate(-403.238 -393.4)" fill="#263238"/>
      <path id="Path_14947" data-name="Path 14947" d="M422.3,431.354a42.29,42.29,0,0,1,0-7.784,42.282,42.282,0,0,1,0,7.784Z" transform="translate(-407.474 -393.4)" fill="#263238"/>
      <path id="Path_14948" data-name="Path 14948" d="M418.609,431.354a42.29,42.29,0,0,1,0-7.784A42.279,42.279,0,0,1,418.609,431.354Z" transform="translate(-406.148 -393.4)" fill="#263238"/>
      <path id="Path_14949" data-name="Path 14949" d="M430.4,431.354a42.282,42.282,0,0,1,0-7.784A42.285,42.285,0,0,1,430.4,431.354Z" transform="translate(-410.384 -393.4)" fill="#263238"/>
      <path id="Path_14950" data-name="Path 14950" d="M426.716,431.354a40.864,40.864,0,0,1,0-7.784,42.286,42.286,0,0,1,0,7.784Z" transform="translate(-409.058 -393.4)" fill="#263238"/>
      <path id="Path_14951" data-name="Path 14951" d="M438.509,431.354a42.285,42.285,0,0,1,0-7.784A42.279,42.279,0,0,1,438.509,431.354Z" transform="translate(-413.298 -393.4)" fill="#263238"/>
      <path id="Path_14952" data-name="Path 14952" d="M434.819,431.354a42.285,42.285,0,0,1,0-7.784A42.282,42.282,0,0,1,434.819,431.354Z" transform="translate(-411.972 -393.4)" fill="#263238"/>
      <path id="Path_14953" data-name="Path 14953" d="M446.609,431.354a42.285,42.285,0,0,1,0-7.784,42.282,42.282,0,0,1,0,7.784Z" transform="translate(-416.208 -393.4)" fill="#263238"/>
      <path id="Path_14954" data-name="Path 14954" d="M442.9,431.354a42.29,42.29,0,0,1,0-7.784,42.285,42.285,0,0,1,0,7.784Z" transform="translate(-414.876 -393.4)" fill="#263238"/>
      <path id="Path_14955" data-name="Path 14955" d="M454.709,431.354a42.285,42.285,0,0,1,0-7.784A42.285,42.285,0,0,1,454.709,431.354Z" transform="translate(-419.119 -393.4)" fill="#263238"/>
      <path id="Path_14956" data-name="Path 14956" d="M451.019,431.354a42.285,42.285,0,0,1,0-7.784A42.285,42.285,0,0,1,451.019,431.354Z" transform="translate(-417.793 -393.4)" fill="#263238"/>
      <path id="Path_14957" data-name="Path 14957" d="M462.809,431.354a42.293,42.293,0,0,1,0-7.784,42.283,42.283,0,0,1,0,7.784Z" transform="translate(-422.029 -393.4)" fill="#263238"/>
      <path id="Path_14958" data-name="Path 14958" d="M459.129,431.354a42.29,42.29,0,0,1,0-7.784,42.285,42.285,0,0,1,0,7.784Z" transform="translate(-420.707 -393.4)" fill="#263238"/>
      <path id="Path_14959" data-name="Path 14959" d="M442.661,423.289c0,.1-9.713.179-21.7.179s-21.7-.077-21.7-.179,9.713-.179,21.7-.179S442.661,423.193,442.661,423.289Z" transform="translate(-399.26 -393.234)" fill="#263238"/>
      <rect id="Rectangle_1825" data-name="Rectangle 1825" width="43.202" height="7.849" transform="translate(3.742 37.955)" fill="#088fff"/>
      <path id="Path_14960" data-name="Path 14960" d="M411.609,443.684a42.285,42.285,0,0,1,0-7.784A42.28,42.28,0,0,1,411.609,443.684Z" transform="translate(-403.633 -397.83)" fill="#263238"/>
      <path id="Path_14961" data-name="Path 14961" d="M407.9,443.684a42.291,42.291,0,0,1,0-7.784A42.291,42.291,0,0,1,407.9,443.684Z" transform="translate(-402.3 -397.83)" fill="#263238"/>
      <path id="Path_14962" data-name="Path 14962" d="M419.709,443.684a42.285,42.285,0,0,1,0-7.784,42.283,42.283,0,0,1,0,7.784Z" transform="translate(-406.543 -397.83)" fill="#263238"/>
      <path id="Path_14963" data-name="Path 14963" d="M416.019,443.684a42.285,42.285,0,0,1,0-7.784A42.285,42.285,0,0,1,416.019,443.684Z" transform="translate(-405.217 -397.83)" fill="#263238"/>
      <path id="Path_14964" data-name="Path 14964" d="M427.809,443.684a42.285,42.285,0,0,1,0-7.784A42.285,42.285,0,0,1,427.809,443.684Z" transform="translate(-409.454 -397.83)" fill="#263238"/>
      <path id="Path_14965" data-name="Path 14965" d="M424.119,443.684a42.291,42.291,0,0,1,0-7.784A42.28,42.28,0,0,1,424.119,443.684Z" transform="translate(-408.128 -397.83)" fill="#263238"/>
      <path id="Path_14966" data-name="Path 14966" d="M435.9,443.684a42.28,42.28,0,0,1,0-7.784,40.864,40.864,0,0,1,0,7.784Z" transform="translate(-412.36 -397.83)" fill="#263238"/>
      <path id="Path_14967" data-name="Path 14967" d="M432.229,443.684a42.291,42.291,0,0,1,0-7.784,42.285,42.285,0,0,1,0,7.784Z" transform="translate(-411.042 -397.83)" fill="#263238"/>
      <path id="Path_14968" data-name="Path 14968" d="M444.019,443.684a42.291,42.291,0,0,1,0-7.784,42.285,42.285,0,0,1,0,7.784Z" transform="translate(-415.278 -397.83)" fill="#263238"/>
      <path id="Path_14969" data-name="Path 14969" d="M440.329,443.684a42.285,42.285,0,0,1,0-7.784,42.288,42.288,0,0,1,0,7.784Z" transform="translate(-413.952 -397.83)" fill="#263238"/>
      <path id="Path_14970" data-name="Path 14970" d="M452.119,443.684a42.291,42.291,0,0,1,0-7.784,42.285,42.285,0,0,1,0,7.784Z" transform="translate(-418.188 -397.83)" fill="#263238"/>
      <path id="Path_14971" data-name="Path 14971" d="M448.429,443.684a42.285,42.285,0,0,1,0-7.784,42.285,42.285,0,0,1,0,7.784Z" transform="translate(-416.862 -397.83)" fill="#263238"/>
      <path id="Path_14972" data-name="Path 14972" d="M460.219,443.684a42.291,42.291,0,0,1,0-7.784,42.283,42.283,0,0,1,0,7.784Z" transform="translate(-421.099 -397.83)" fill="#263238"/>
      <path id="Path_14973" data-name="Path 14973" d="M456.529,443.684a42.291,42.291,0,0,1,0-7.784,42.283,42.283,0,0,1,0,7.784Z" transform="translate(-419.773 -397.83)" fill="#263238"/>
      <path id="Path_14974" data-name="Path 14974" d="M468.319,443.684a42.285,42.285,0,0,1,0-7.784A40.869,40.869,0,0,1,468.319,443.684Z" transform="translate(-424.009 -397.83)" fill="#263238"/>
      <path id="Path_14975" data-name="Path 14975" d="M464.639,443.684a42.285,42.285,0,0,1,0-7.784A42.291,42.291,0,0,1,464.639,443.684Z" transform="translate(-422.687 -397.83)" fill="#263238"/>
      <path id="Path_14976" data-name="Path 14976" d="M448.115,435.619c0,.1-9.739.179-21.752.179s-21.784-.077-21.784-.179,9.739-.179,21.784-.179S448.115,435.523,448.115,435.619Z" transform="translate(-401.172 -397.665)" fill="#263238"/>
      <rect id="Rectangle_1826" data-name="Rectangle 1826" width="43.202" height="7.849" transform="translate(0.352 45.739)" fill="#def128"/>
      <path id="Path_14977" data-name="Path 14977" d="M406.319,455.834a42.286,42.286,0,0,1,0-7.784,42.286,42.286,0,0,1,0,7.784Z" transform="translate(-401.732 -402.195)" fill="#263238"/>
      <path id="Path_14978" data-name="Path 14978" d="M402.629,455.834a42.291,42.291,0,0,1,0-7.784,42.286,42.286,0,0,1,0,7.784Z" transform="translate(-400.406 -402.195)" fill="#263238"/>
      <path id="Path_14979" data-name="Path 14979" d="M414.419,455.834a42.291,42.291,0,0,1,0-7.784A42.281,42.281,0,0,1,414.419,455.834Z" transform="translate(-404.642 -402.195)" fill="#263238"/>
      <path id="Path_14980" data-name="Path 14980" d="M410.729,455.834a42.283,42.283,0,0,1,0-7.784A40.872,40.872,0,0,1,410.729,455.834Z" transform="translate(-403.316 -402.195)" fill="#263238"/>
      <path id="Path_14981" data-name="Path 14981" d="M422.529,455.834a42.286,42.286,0,0,1,0-7.784A42.286,42.286,0,0,1,422.529,455.834Z" transform="translate(-407.556 -402.195)" fill="#263238"/>
      <path id="Path_14982" data-name="Path 14982" d="M418.839,455.834a42.291,42.291,0,0,1,0-7.784A42.281,42.281,0,0,1,418.839,455.834Z" transform="translate(-406.23 -402.195)" fill="#263238"/>
      <path id="Path_14983" data-name="Path 14983" d="M430.629,455.834a42.291,42.291,0,0,1,0-7.784,42.291,42.291,0,0,1,0,7.784Z" transform="translate(-410.467 -402.195)" fill="#263238"/>
      <path id="Path_14984" data-name="Path 14984" d="M426.9,455.834a42.281,42.281,0,0,1,0-7.784A42.286,42.286,0,0,1,426.9,455.834Z" transform="translate(-409.127 -402.195)" fill="#263238"/>
      <path id="Path_14985" data-name="Path 14985" d="M438.729,455.834a42.289,42.289,0,0,1,0-7.784A42.281,42.281,0,0,1,438.729,455.834Z" transform="translate(-413.377 -402.195)" fill="#263238"/>
      <path id="Path_14986" data-name="Path 14986" d="M435.039,455.834a42.291,42.291,0,0,1,0-7.784A42.286,42.286,0,0,1,435.039,455.834Z" transform="translate(-412.051 -402.195)" fill="#263238"/>
      <path id="Path_14987" data-name="Path 14987" d="M446.829,455.834a42.291,42.291,0,0,1,0-7.784A42.281,42.281,0,0,1,446.829,455.834Z" transform="translate(-416.288 -402.195)" fill="#263238"/>
      <path id="Path_14988" data-name="Path 14988" d="M443.146,455.834a40.867,40.867,0,0,1,0-7.784A42.283,42.283,0,0,1,443.146,455.834Z" transform="translate(-414.962 -402.195)" fill="#263238"/>
      <path id="Path_14989" data-name="Path 14989" d="M454.9,455.834a42.286,42.286,0,0,1,0-7.784A42.291,42.291,0,0,1,454.9,455.834Z" transform="translate(-419.187 -402.195)" fill="#263238"/>
      <path id="Path_14990" data-name="Path 14990" d="M451.249,455.834a42.286,42.286,0,0,1,0-7.784A42.281,42.281,0,0,1,451.249,455.834Z" transform="translate(-417.876 -402.195)" fill="#263238"/>
      <path id="Path_14991" data-name="Path 14991" d="M463.039,455.834a42.289,42.289,0,0,1,0-7.784A42.283,42.283,0,0,1,463.039,455.834Z" transform="translate(-422.112 -402.195)" fill="#263238"/>
      <path id="Path_14992" data-name="Path 14992" d="M459.349,455.834a42.286,42.286,0,0,1,0-7.784A42.286,42.286,0,0,1,459.349,455.834Z" transform="translate(-420.786 -402.195)" fill="#263238"/>
      <path id="Path_14993" data-name="Path 14993" d="M442.907,447.769c0,.1-9.719.179-21.707.179s-21.7-.077-21.7-.179,9.713-.179,21.7-.179S442.907,447.673,442.907,447.769Z" transform="translate(-399.346 -402.03)" fill="#263238"/>
      <rect id="Rectangle_1827" data-name="Rectangle 1827" width="43.202" height="7.849" transform="translate(4.683 53.697)" fill="#088fff"/>
      <path id="Path_14994" data-name="Path 14994" d="M413.079,468.254a42.281,42.281,0,0,1,0-7.784A42.291,42.291,0,0,1,413.079,468.254Z" transform="translate(-404.161 -406.658)" fill="#263238"/>
      <path id="Path_14995" data-name="Path 14995" d="M409.389,468.254a42.286,42.286,0,0,1,0-7.784A42.291,42.291,0,0,1,409.389,468.254Z" transform="translate(-402.835 -406.658)" fill="#263238"/>
      <path id="Path_14996" data-name="Path 14996" d="M421.179,468.254a42.286,42.286,0,0,1,0-7.784A42.291,42.291,0,0,1,421.179,468.254Z" transform="translate(-407.071 -406.658)" fill="#263238"/>
      <path id="Path_14997" data-name="Path 14997" d="M417.489,468.254a42.291,42.291,0,0,1,0-7.784A42.286,42.286,0,0,1,417.489,468.254Z" transform="translate(-405.746 -406.658)" fill="#263238"/>
      <path id="Path_14998" data-name="Path 14998" d="M429.279,468.254a42.291,42.291,0,0,1,0-7.784,42.281,42.281,0,0,1,0,7.784Z" transform="translate(-409.982 -406.658)" fill="#263238"/>
      <path id="Path_14999" data-name="Path 14999" d="M425.6,468.254a40.869,40.869,0,0,1,0-7.784A42.291,42.291,0,0,1,425.6,468.254Z" transform="translate(-408.656 -406.658)" fill="#263238"/>
      <path id="Path_15000" data-name="Path 15000" d="M437.389,468.254a42.291,42.291,0,0,1,0-7.784A42.291,42.291,0,0,1,437.389,468.254Z" transform="translate(-412.896 -406.658)" fill="#263238"/>
      <path id="Path_15001" data-name="Path 15001" d="M433.7,468.254a42.286,42.286,0,0,1,0-7.784A42.286,42.286,0,0,1,433.7,468.254Z" transform="translate(-411.57 -406.658)" fill="#263238"/>
      <path id="Path_15002" data-name="Path 15002" d="M445.489,468.254a42.291,42.291,0,0,1,0-7.784A42.281,42.281,0,0,1,445.489,468.254Z" transform="translate(-415.806 -406.658)" fill="#263238"/>
      <path id="Path_15003" data-name="Path 15003" d="M441.8,468.254a42.286,42.286,0,0,1,0-7.784,42.289,42.289,0,0,1,0,7.784Z" transform="translate(-414.48 -406.658)" fill="#263238"/>
      <path id="Path_15004" data-name="Path 15004" d="M453.589,468.254a42.289,42.289,0,0,1,0-7.784A42.283,42.283,0,0,1,453.589,468.254Z" transform="translate(-418.717 -406.658)" fill="#263238"/>
      <path id="Path_15005" data-name="Path 15005" d="M449.9,468.254a42.291,42.291,0,0,1,0-7.784A42.281,42.281,0,0,1,449.9,468.254Z" transform="translate(-417.391 -406.658)" fill="#263238"/>
      <path id="Path_15006" data-name="Path 15006" d="M461.689,468.254a42.286,42.286,0,0,1,0-7.784,42.283,42.283,0,0,1,0,7.784Z" transform="translate(-421.627 -406.658)" fill="#263238"/>
      <path id="Path_15007" data-name="Path 15007" d="M458.009,468.254a42.286,42.286,0,0,1,0-7.784,42.283,42.283,0,0,1,0,7.784Z" transform="translate(-420.305 -406.658)" fill="#263238"/>
      <path id="Path_15008" data-name="Path 15008" d="M469.8,468.254a42.291,42.291,0,0,1,0-7.784A42.281,42.281,0,0,1,469.8,468.254Z" transform="translate(-424.541 -406.658)" fill="#263238"/>
      <path id="Path_15009" data-name="Path 15009" d="M466.109,468.254a42.291,42.291,0,0,1,0-7.784A42.281,42.281,0,0,1,466.109,468.254Z" transform="translate(-423.215 -406.658)" fill="#263238"/>
      <path id="Path_15010" data-name="Path 15010" d="M449.661,460.189c0,.1-9.713.179-21.7.179s-21.7-.077-21.7-.179,9.713-.179,21.7-.179S449.661,460.093,449.661,460.189Z" transform="translate(-401.775 -406.493)" fill="#263238"/>
      <g id="Group_3873" data-name="Group 3873" transform="translate(3.742 37.955)" opacity="0.3">
        <path id="Path_15011" data-name="Path 15011" d="M405.1,435.72a65.849,65.849,0,0,0,19.958,1.461c6.631-.442,13.326-1.416,19.97-1.339Z" transform="translate(-405.1 -435.72)"/>
      </g>
      <g id="Group_3874" data-name="Group 3874" transform="translate(4.132 30.145)" opacity="0.3">
        <path id="Path_15012" data-name="Path 15012" d="M405.71,423.53a65.852,65.852,0,0,0,19.958,1.454c6.631-.442,13.326-1.416,19.97-1.339Z" transform="translate(-405.71 -423.53)"/>
      </g>
      <g id="Group_3875" data-name="Group 3875" transform="translate(6.24 45.822)" opacity="0.3">
        <path id="Path_15013" data-name="Path 15013" d="M409,448a65.852,65.852,0,0,0,19.958,1.454c6.631-.442,13.326-1.416,19.97-1.333Z" transform="translate(-409 -448)"/>
      </g>
      <g id="Group_3876" data-name="Group 3876" transform="translate(4.53 53.652)" opacity="0.3">
        <path id="Path_15014" data-name="Path 15014" d="M406.33,460.22a66.054,66.054,0,0,0,19.958,1.448c6.631-.436,13.326-1.416,19.97-1.333Z" transform="translate(-406.33 -460.22)"/>
      </g>
      <path id="Path_15015" data-name="Path 15015" d="M405.139,416.919a12.968,12.968,0,0,1,0-4.3,12.967,12.967,0,0,1,0,4.3Z" transform="translate(-401.308 -389.465)" fill="#fff"/>
      <path id="Path_15016" data-name="Path 15016" d="M400.9,429.827a14.876,14.876,0,0,1,0-4.607A14.877,14.877,0,0,1,400.9,429.827Z" transform="translate(-399.785 -393.993)" fill="#fff"/>
      <path id="Path_15017" data-name="Path 15017" d="M406.9,442.708a11.732,11.732,0,0,1,0-4.088A11.73,11.73,0,0,1,406.9,442.708Z" transform="translate(-401.94 -398.807)" fill="#fff"/>
      <path id="Path_15018" data-name="Path 15018" d="M400.719,454.565a9.45,9.45,0,0,1,0-3.665,9.451,9.451,0,0,1,0,3.665Z" transform="translate(-399.72 -403.22)" fill="#fff"/>
      <path id="Path_15019" data-name="Path 15019" d="M417.529,424.286c0,.1-3.2.179-7.125.179s-7.125-.083-7.125-.179a141.559,141.559,0,0,1,14.249,0Z" transform="translate(-400.705 -393.584)" fill="#fff"/>
      <path id="Path_15020" data-name="Path 15020" d="M424.668,412.519a143.767,143.767,0,0,1-14.358,0c0-.1,3.2-.179,7.176-.179S424.668,412.423,424.668,412.519Z" transform="translate(-403.23 -389.365)" fill="#fff"/>
      <path id="Path_15021" data-name="Path 15021" d="M440.866,412.689a15.583,15.583,0,0,1-4.716,0,15.583,15.583,0,0,1,4.715,0Z" transform="translate(-412.515 -389.426)" fill="#fff"/>
    </g>
    <g id="Group_3899" data-name="Group 3899" transform="translate(12.879 98.385)">
      <rect id="Rectangle_1823-2" data-name="Rectangle 1823" width="43.202" height="7.849" transform="translate(3.037 0.148)" fill="#088fff"/>
      <path id="Path_14926-2" data-name="Path 14926" d="M410.509,418.918a42.238,42.238,0,0,1,0-7.778,42.246,42.246,0,0,1,0,7.778Z" transform="translate(-403.238 -410.871)" fill="#263238"/>
      <path id="Path_14927-2" data-name="Path 14927" d="M406.819,418.918a42.241,42.241,0,0,1,0-7.778A42.241,42.241,0,0,1,406.819,418.918Z" transform="translate(-401.912 -410.871)" fill="#263238"/>
      <path id="Path_14928-2" data-name="Path 14928" d="M418.609,418.918a42.238,42.238,0,0,1,0-7.778,42.243,42.243,0,0,1,0,7.778Z" transform="translate(-406.148 -410.871)" fill="#263238"/>
      <path id="Path_14929-2" data-name="Path 14929" d="M414.9,418.918a42.249,42.249,0,0,1,0-7.778A40.793,40.793,0,0,1,414.9,418.918Z" transform="translate(-404.815 -410.871)" fill="#263238"/>
      <path id="Path_14930-2" data-name="Path 14930" d="M426.716,418.918a40.8,40.8,0,0,1,0-7.778A42.243,42.243,0,0,1,426.716,418.918Z" transform="translate(-409.058 -410.871)" fill="#263238"/>
      <path id="Path_14931-2" data-name="Path 14931" d="M423.029,418.918a42.227,42.227,0,0,1,0-7.778A42.243,42.243,0,0,1,423.029,418.918Z" transform="translate(-407.736 -410.871)" fill="#263238"/>
      <path id="Path_14932-2" data-name="Path 14932" d="M434.819,418.918a42.243,42.243,0,0,1,0-7.778A42.233,42.233,0,0,1,434.819,418.918Z" transform="translate(-411.972 -410.871)" fill="#263238"/>
      <path id="Path_14933-2" data-name="Path 14933" d="M431.129,418.918a42.246,42.246,0,0,1,0-7.778,42.243,42.243,0,0,1,0,7.778Z" transform="translate(-410.647 -410.871)" fill="#263238"/>
      <path id="Path_14934-2" data-name="Path 14934" d="M442.9,418.918a42.243,42.243,0,0,1,0-7.778A42.243,42.243,0,0,1,442.9,418.918Z" transform="translate(-414.876 -410.871)" fill="#263238"/>
      <path id="Path_14935-2" data-name="Path 14935" d="M439.229,418.918a42.235,42.235,0,0,1,0-7.778A42.241,42.241,0,0,1,439.229,418.918Z" transform="translate(-413.557 -410.871)" fill="#263238"/>
      <path id="Path_14936-2" data-name="Path 14936" d="M451.019,418.918a42.233,42.233,0,0,1,0-7.778A42.243,42.243,0,0,1,451.019,418.918Z" transform="translate(-417.793 -410.871)" fill="#263238"/>
      <path id="Path_14937-2" data-name="Path 14937" d="M447.329,418.918a42.241,42.241,0,0,1,0-7.778A40.8,40.8,0,0,1,447.329,418.918Z" transform="translate(-416.467 -410.871)" fill="#263238"/>
      <path id="Path_14938-2" data-name="Path 14938" d="M459.129,418.918a42.243,42.243,0,0,1,0-7.778,42.243,42.243,0,0,1,0,7.778Z" transform="translate(-420.707 -410.871)" fill="#263238"/>
      <path id="Path_14939-2" data-name="Path 14939" d="M455.439,418.918a42.238,42.238,0,0,1,0-7.778A42.246,42.246,0,0,1,455.439,418.918Z" transform="translate(-419.381 -410.871)" fill="#263238"/>
      <path id="Path_14940-2" data-name="Path 14940" d="M467.229,418.918a42.233,42.233,0,0,1,0-7.778A42.233,42.233,0,0,1,467.229,418.918Z" transform="translate(-423.617 -410.871)" fill="#263238"/>
      <path id="Path_14941-2" data-name="Path 14941" d="M463.539,418.918a42.243,42.243,0,0,1,0-7.778A42.243,42.243,0,0,1,463.539,418.918Z" transform="translate(-422.292 -410.871)" fill="#263238"/>
      <path id="Path_14942-2" data-name="Path 14942" d="M447.1,410.9c0,.1-9.719.179-21.707.179s-21.7-.077-21.7-.179,9.713-.179,21.7-.179S447.1,410.771,447.1,410.9Z" transform="translate(-400.852 -410.72)" fill="#263238"/>
      <rect id="Rectangle_1824-2" data-name="Rectangle 1824" width="43.202" height="7.849" transform="translate(0.211 8.118)" fill="#def128"/>
      <path id="Path_14943-2" data-name="Path 14943" d="M406.1,431.354a42.29,42.29,0,0,1,0-7.784,42.285,42.285,0,0,1,0,7.784Z" transform="translate(-401.653 -415.337)" fill="#263238"/>
      <path id="Path_14944-2" data-name="Path 14944" d="M402.409,431.354a42.279,42.279,0,0,1,0-7.784A42.29,42.29,0,0,1,402.409,431.354Z" transform="translate(-400.327 -415.337)" fill="#263238"/>
      <path id="Path_14945-2" data-name="Path 14945" d="M414.2,431.354a42.279,42.279,0,0,1,0-7.784A42.279,42.279,0,0,1,414.2,431.354Z" transform="translate(-404.563 -415.337)" fill="#263238"/>
      <path id="Path_14946-2" data-name="Path 14946" d="M410.509,431.354a42.287,42.287,0,0,1,0-7.784,42.287,42.287,0,0,1,0,7.784Z" transform="translate(-403.238 -415.337)" fill="#263238"/>
      <path id="Path_14947-2" data-name="Path 14947" d="M422.3,431.354a42.29,42.29,0,0,1,0-7.784,42.282,42.282,0,0,1,0,7.784Z" transform="translate(-407.474 -415.337)" fill="#263238"/>
      <path id="Path_14948-2" data-name="Path 14948" d="M418.609,431.354a42.29,42.29,0,0,1,0-7.784A42.279,42.279,0,0,1,418.609,431.354Z" transform="translate(-406.148 -415.337)" fill="#263238"/>
      <path id="Path_14949-2" data-name="Path 14949" d="M430.4,431.354a42.282,42.282,0,0,1,0-7.784A42.285,42.285,0,0,1,430.4,431.354Z" transform="translate(-410.384 -415.337)" fill="#263238"/>
      <path id="Path_14950-2" data-name="Path 14950" d="M426.716,431.354a40.864,40.864,0,0,1,0-7.784,42.286,42.286,0,0,1,0,7.784Z" transform="translate(-409.058 -415.337)" fill="#263238"/>
      <path id="Path_14951-2" data-name="Path 14951" d="M438.509,431.354a42.285,42.285,0,0,1,0-7.784A42.279,42.279,0,0,1,438.509,431.354Z" transform="translate(-413.298 -415.337)" fill="#263238"/>
      <path id="Path_14952-2" data-name="Path 14952" d="M434.819,431.354a42.285,42.285,0,0,1,0-7.784A42.282,42.282,0,0,1,434.819,431.354Z" transform="translate(-411.972 -415.337)" fill="#263238"/>
      <path id="Path_14953-2" data-name="Path 14953" d="M446.609,431.354a42.285,42.285,0,0,1,0-7.784,42.282,42.282,0,0,1,0,7.784Z" transform="translate(-416.208 -415.337)" fill="#263238"/>
      <path id="Path_14954-2" data-name="Path 14954" d="M442.9,431.354a42.29,42.29,0,0,1,0-7.784,42.285,42.285,0,0,1,0,7.784Z" transform="translate(-414.876 -415.337)" fill="#263238"/>
      <path id="Path_14955-2" data-name="Path 14955" d="M454.709,431.354a42.285,42.285,0,0,1,0-7.784A42.285,42.285,0,0,1,454.709,431.354Z" transform="translate(-419.119 -415.337)" fill="#263238"/>
      <path id="Path_14956-2" data-name="Path 14956" d="M451.019,431.354a42.285,42.285,0,0,1,0-7.784A42.285,42.285,0,0,1,451.019,431.354Z" transform="translate(-417.793 -415.337)" fill="#263238"/>
      <path id="Path_14957-2" data-name="Path 14957" d="M462.809,431.354a42.293,42.293,0,0,1,0-7.784,42.283,42.283,0,0,1,0,7.784Z" transform="translate(-422.029 -415.337)" fill="#263238"/>
      <path id="Path_14958-2" data-name="Path 14958" d="M459.129,431.354a42.29,42.29,0,0,1,0-7.784,42.285,42.285,0,0,1,0,7.784Z" transform="translate(-420.707 -415.337)" fill="#263238"/>
      <path id="Path_14959-2" data-name="Path 14959" d="M442.661,423.289c0,.1-9.713.179-21.7.179s-21.7-.077-21.7-.179,9.713-.179,21.7-.179S442.661,423.193,442.661,423.289Z" transform="translate(-399.26 -415.172)" fill="#263238"/>
      <rect id="Rectangle_1825-2" data-name="Rectangle 1825" width="43.202" height="7.849" transform="translate(3.742 16.017)" fill="#def128"/>
      <path id="Path_14960-2" data-name="Path 14960" d="M411.609,443.684a42.285,42.285,0,0,1,0-7.784A42.28,42.28,0,0,1,411.609,443.684Z" transform="translate(-403.633 -419.767)" fill="#263238"/>
      <path id="Path_14961-2" data-name="Path 14961" d="M407.9,443.684a42.291,42.291,0,0,1,0-7.784A42.291,42.291,0,0,1,407.9,443.684Z" transform="translate(-402.3 -419.767)" fill="#263238"/>
      <path id="Path_14962-2" data-name="Path 14962" d="M419.709,443.684a42.285,42.285,0,0,1,0-7.784,42.283,42.283,0,0,1,0,7.784Z" transform="translate(-406.543 -419.767)" fill="#263238"/>
      <path id="Path_14963-2" data-name="Path 14963" d="M416.019,443.684a42.285,42.285,0,0,1,0-7.784A42.285,42.285,0,0,1,416.019,443.684Z" transform="translate(-405.217 -419.767)" fill="#263238"/>
      <path id="Path_14964-2" data-name="Path 14964" d="M427.809,443.684a42.285,42.285,0,0,1,0-7.784A42.285,42.285,0,0,1,427.809,443.684Z" transform="translate(-409.454 -419.767)" fill="#263238"/>
      <path id="Path_14965-2" data-name="Path 14965" d="M424.119,443.684a42.291,42.291,0,0,1,0-7.784A42.28,42.28,0,0,1,424.119,443.684Z" transform="translate(-408.128 -419.767)" fill="#263238"/>
      <path id="Path_14966-2" data-name="Path 14966" d="M435.9,443.684a42.28,42.28,0,0,1,0-7.784,40.864,40.864,0,0,1,0,7.784Z" transform="translate(-412.36 -419.767)" fill="#263238"/>
      <path id="Path_14967-2" data-name="Path 14967" d="M432.229,443.684a42.291,42.291,0,0,1,0-7.784,42.285,42.285,0,0,1,0,7.784Z" transform="translate(-411.042 -419.767)" fill="#263238"/>
      <path id="Path_14968-2" data-name="Path 14968" d="M444.019,443.684a42.291,42.291,0,0,1,0-7.784,42.285,42.285,0,0,1,0,7.784Z" transform="translate(-415.278 -419.767)" fill="#263238"/>
      <path id="Path_14969-2" data-name="Path 14969" d="M440.329,443.684a42.285,42.285,0,0,1,0-7.784,42.288,42.288,0,0,1,0,7.784Z" transform="translate(-413.952 -419.767)" fill="#263238"/>
      <path id="Path_14970-2" data-name="Path 14970" d="M452.119,443.684a42.291,42.291,0,0,1,0-7.784,42.285,42.285,0,0,1,0,7.784Z" transform="translate(-418.188 -419.767)" fill="#263238"/>
      <path id="Path_14971-2" data-name="Path 14971" d="M448.429,443.684a42.285,42.285,0,0,1,0-7.784,42.285,42.285,0,0,1,0,7.784Z" transform="translate(-416.862 -419.767)" fill="#263238"/>
      <path id="Path_14972-2" data-name="Path 14972" d="M460.219,443.684a42.291,42.291,0,0,1,0-7.784,42.283,42.283,0,0,1,0,7.784Z" transform="translate(-421.099 -419.767)" fill="#263238"/>
      <path id="Path_14973-2" data-name="Path 14973" d="M456.529,443.684a42.291,42.291,0,0,1,0-7.784,42.283,42.283,0,0,1,0,7.784Z" transform="translate(-419.773 -419.767)" fill="#263238"/>
      <path id="Path_14974-2" data-name="Path 14974" d="M468.319,443.684a42.285,42.285,0,0,1,0-7.784A40.869,40.869,0,0,1,468.319,443.684Z" transform="translate(-424.009 -419.767)" fill="#263238"/>
      <path id="Path_14975-2" data-name="Path 14975" d="M464.639,443.684a42.285,42.285,0,0,1,0-7.784A42.291,42.291,0,0,1,464.639,443.684Z" transform="translate(-422.687 -419.767)" fill="#263238"/>
      <path id="Path_14976-2" data-name="Path 14976" d="M448.115,435.619c0,.1-9.739.179-21.752.179s-21.784-.077-21.784-.179,9.739-.179,21.784-.179S448.115,435.523,448.115,435.619Z" transform="translate(-401.172 -419.602)" fill="#263238"/>
      <rect id="Rectangle_1826-2" data-name="Rectangle 1826" width="43.202" height="7.849" transform="translate(0.352 23.802)" fill="#088fff"/>
      <path id="Path_14977-2" data-name="Path 14977" d="M406.319,455.834a42.286,42.286,0,0,1,0-7.784,42.286,42.286,0,0,1,0,7.784Z" transform="translate(-401.732 -424.133)" fill="#263238"/>
      <path id="Path_14978-2" data-name="Path 14978" d="M402.629,455.834a42.291,42.291,0,0,1,0-7.784,42.286,42.286,0,0,1,0,7.784Z" transform="translate(-400.406 -424.133)" fill="#263238"/>
      <path id="Path_14979-2" data-name="Path 14979" d="M414.419,455.834a42.291,42.291,0,0,1,0-7.784A42.281,42.281,0,0,1,414.419,455.834Z" transform="translate(-404.642 -424.133)" fill="#263238"/>
      <path id="Path_14980-2" data-name="Path 14980" d="M410.729,455.834a42.283,42.283,0,0,1,0-7.784A40.872,40.872,0,0,1,410.729,455.834Z" transform="translate(-403.316 -424.133)" fill="#263238"/>
      <path id="Path_14981-2" data-name="Path 14981" d="M422.529,455.834a42.286,42.286,0,0,1,0-7.784A42.286,42.286,0,0,1,422.529,455.834Z" transform="translate(-407.556 -424.133)" fill="#263238"/>
      <path id="Path_14982-2" data-name="Path 14982" d="M418.839,455.834a42.291,42.291,0,0,1,0-7.784A42.281,42.281,0,0,1,418.839,455.834Z" transform="translate(-406.23 -424.133)" fill="#263238"/>
      <path id="Path_14983-2" data-name="Path 14983" d="M430.629,455.834a42.291,42.291,0,0,1,0-7.784,42.291,42.291,0,0,1,0,7.784Z" transform="translate(-410.467 -424.133)" fill="#263238"/>
      <path id="Path_14984-2" data-name="Path 14984" d="M426.9,455.834a42.281,42.281,0,0,1,0-7.784A42.286,42.286,0,0,1,426.9,455.834Z" transform="translate(-409.127 -424.133)" fill="#263238"/>
      <path id="Path_14985-2" data-name="Path 14985" d="M438.729,455.834a42.289,42.289,0,0,1,0-7.784A42.281,42.281,0,0,1,438.729,455.834Z" transform="translate(-413.377 -424.133)" fill="#263238"/>
      <path id="Path_14986-2" data-name="Path 14986" d="M435.039,455.834a42.291,42.291,0,0,1,0-7.784A42.286,42.286,0,0,1,435.039,455.834Z" transform="translate(-412.051 -424.133)" fill="#263238"/>
      <path id="Path_14987-2" data-name="Path 14987" d="M446.829,455.834a42.291,42.291,0,0,1,0-7.784A42.281,42.281,0,0,1,446.829,455.834Z" transform="translate(-416.288 -424.133)" fill="#263238"/>
      <path id="Path_14988-2" data-name="Path 14988" d="M443.146,455.834a40.867,40.867,0,0,1,0-7.784A42.283,42.283,0,0,1,443.146,455.834Z" transform="translate(-414.962 -424.133)" fill="#263238"/>
      <path id="Path_14989-2" data-name="Path 14989" d="M454.9,455.834a42.286,42.286,0,0,1,0-7.784A42.291,42.291,0,0,1,454.9,455.834Z" transform="translate(-419.187 -424.133)" fill="#263238"/>
      <path id="Path_14990-2" data-name="Path 14990" d="M451.249,455.834a42.286,42.286,0,0,1,0-7.784A42.281,42.281,0,0,1,451.249,455.834Z" transform="translate(-417.876 -424.133)" fill="#263238"/>
      <path id="Path_14991-2" data-name="Path 14991" d="M463.039,455.834a42.289,42.289,0,0,1,0-7.784A42.283,42.283,0,0,1,463.039,455.834Z" transform="translate(-422.112 -424.133)" fill="#263238"/>
      <path id="Path_14992-2" data-name="Path 14992" d="M459.349,455.834a42.286,42.286,0,0,1,0-7.784A42.286,42.286,0,0,1,459.349,455.834Z" transform="translate(-420.786 -424.133)" fill="#263238"/>
      <path id="Path_14993-2" data-name="Path 14993" d="M442.907,447.769c0,.1-9.719.179-21.707.179s-21.7-.077-21.7-.179,9.713-.179,21.7-.179S442.907,447.673,442.907,447.769Z" transform="translate(-399.346 -423.967)" fill="#263238"/>
      <rect id="Rectangle_1827-2" data-name="Rectangle 1827" width="43.202" height="7.849" transform="translate(4.683 31.759)" fill="#088fff"/>
      <path id="Path_14994-2" data-name="Path 14994" d="M413.079,468.254a42.281,42.281,0,0,1,0-7.784A42.291,42.291,0,0,1,413.079,468.254Z" transform="translate(-404.161 -428.596)" fill="#263238"/>
      <path id="Path_14995-2" data-name="Path 14995" d="M409.389,468.254a42.286,42.286,0,0,1,0-7.784A42.291,42.291,0,0,1,409.389,468.254Z" transform="translate(-402.835 -428.596)" fill="#263238"/>
      <path id="Path_14996-2" data-name="Path 14996" d="M421.179,468.254a42.286,42.286,0,0,1,0-7.784A42.291,42.291,0,0,1,421.179,468.254Z" transform="translate(-407.071 -428.596)" fill="#263238"/>
      <path id="Path_14997-2" data-name="Path 14997" d="M417.489,468.254a42.291,42.291,0,0,1,0-7.784A42.286,42.286,0,0,1,417.489,468.254Z" transform="translate(-405.746 -428.596)" fill="#263238"/>
      <path id="Path_14998-2" data-name="Path 14998" d="M429.279,468.254a42.291,42.291,0,0,1,0-7.784,42.281,42.281,0,0,1,0,7.784Z" transform="translate(-409.982 -428.596)" fill="#263238"/>
      <path id="Path_14999-2" data-name="Path 14999" d="M425.6,468.254a40.869,40.869,0,0,1,0-7.784A42.291,42.291,0,0,1,425.6,468.254Z" transform="translate(-408.656 -428.596)" fill="#263238"/>
      <path id="Path_15000-2" data-name="Path 15000" d="M437.389,468.254a42.291,42.291,0,0,1,0-7.784A42.291,42.291,0,0,1,437.389,468.254Z" transform="translate(-412.896 -428.596)" fill="#263238"/>
      <path id="Path_15001-2" data-name="Path 15001" d="M433.7,468.254a42.286,42.286,0,0,1,0-7.784A42.286,42.286,0,0,1,433.7,468.254Z" transform="translate(-411.57 -428.596)" fill="#263238"/>
      <path id="Path_15002-2" data-name="Path 15002" d="M445.489,468.254a42.291,42.291,0,0,1,0-7.784A42.281,42.281,0,0,1,445.489,468.254Z" transform="translate(-415.806 -428.596)" fill="#263238"/>
      <path id="Path_15003-2" data-name="Path 15003" d="M441.8,468.254a42.286,42.286,0,0,1,0-7.784,42.289,42.289,0,0,1,0,7.784Z" transform="translate(-414.48 -428.596)" fill="#263238"/>
      <path id="Path_15004-2" data-name="Path 15004" d="M453.589,468.254a42.289,42.289,0,0,1,0-7.784A42.283,42.283,0,0,1,453.589,468.254Z" transform="translate(-418.717 -428.596)" fill="#263238"/>
      <path id="Path_15005-2" data-name="Path 15005" d="M449.9,468.254a42.291,42.291,0,0,1,0-7.784A42.281,42.281,0,0,1,449.9,468.254Z" transform="translate(-417.391 -428.596)" fill="#263238"/>
      <path id="Path_15006-2" data-name="Path 15006" d="M461.689,468.254a42.286,42.286,0,0,1,0-7.784,42.283,42.283,0,0,1,0,7.784Z" transform="translate(-421.627 -428.596)" fill="#263238"/>
      <path id="Path_15007-2" data-name="Path 15007" d="M458.009,468.254a42.286,42.286,0,0,1,0-7.784,42.283,42.283,0,0,1,0,7.784Z" transform="translate(-420.305 -428.596)" fill="#263238"/>
      <path id="Path_15008-2" data-name="Path 15008" d="M469.8,468.254a42.291,42.291,0,0,1,0-7.784A42.281,42.281,0,0,1,469.8,468.254Z" transform="translate(-424.541 -428.596)" fill="#263238"/>
      <path id="Path_15009-2" data-name="Path 15009" d="M466.109,468.254a42.291,42.291,0,0,1,0-7.784A42.281,42.281,0,0,1,466.109,468.254Z" transform="translate(-423.215 -428.596)" fill="#263238"/>
      <path id="Path_15010-2" data-name="Path 15010" d="M449.661,460.189c0,.1-9.713.179-21.7.179s-21.7-.077-21.7-.179,9.713-.179,21.7-.179S449.661,460.093,449.661,460.189Z" transform="translate(-401.775 -428.43)" fill="#263238"/>
      <g id="Group_3873-2" data-name="Group 3873" transform="translate(3.742 16.017)" opacity="0.3">
        <path id="Path_15011-2" data-name="Path 15011" d="M405.1,435.72a65.849,65.849,0,0,0,19.958,1.461c6.631-.442,13.326-1.416,19.97-1.339Z" transform="translate(-405.1 -435.72)"/>
      </g>
      <g id="Group_3874-2" data-name="Group 3874" transform="translate(4.132 8.207)" opacity="0.3">
        <path id="Path_15012-2" data-name="Path 15012" d="M405.71,423.53a65.852,65.852,0,0,0,19.958,1.454c6.631-.442,13.326-1.416,19.97-1.339Z" transform="translate(-405.71 -423.53)"/>
      </g>
      <g id="Group_3875-2" data-name="Group 3875" transform="translate(6.24 23.885)" opacity="0.3">
        <path id="Path_15013-2" data-name="Path 15013" d="M409,448a65.852,65.852,0,0,0,19.958,1.454c6.631-.442,13.326-1.416,19.97-1.333Z" transform="translate(-409 -448)"/>
      </g>
      <g id="Group_3876-2" data-name="Group 3876" transform="translate(4.53 31.715)" opacity="0.3">
        <path id="Path_15014-2" data-name="Path 15014" d="M406.33,460.22a66.054,66.054,0,0,0,19.958,1.448c6.631-.436,13.326-1.416,19.97-1.333Z" transform="translate(-406.33 -460.22)"/>
      </g>
      <path id="Path_15015-2" data-name="Path 15015" d="M405.139,416.919a12.968,12.968,0,0,1,0-4.3,12.967,12.967,0,0,1,0,4.3Z" transform="translate(-401.308 -411.403)" fill="#fff"/>
      <path id="Path_15016-2" data-name="Path 15016" d="M400.9,429.827a14.876,14.876,0,0,1,0-4.607A14.877,14.877,0,0,1,400.9,429.827Z" transform="translate(-399.785 -415.93)" fill="#fff"/>
      <path id="Path_15017-2" data-name="Path 15017" d="M406.9,442.708a11.732,11.732,0,0,1,0-4.088A11.73,11.73,0,0,1,406.9,442.708Z" transform="translate(-401.94 -420.745)" fill="#fff"/>
      <path id="Path_15018-2" data-name="Path 15018" d="M400.719,454.565a9.45,9.45,0,0,1,0-3.665,9.451,9.451,0,0,1,0,3.665Z" transform="translate(-399.72 -425.157)" fill="#fff"/>
      <path id="Path_15019-2" data-name="Path 15019" d="M417.529,424.286c0,.1-3.2.179-7.125.179s-7.125-.083-7.125-.179a141.559,141.559,0,0,1,14.249,0Z" transform="translate(-400.705 -415.521)" fill="#fff"/>
      <path id="Path_15020-2" data-name="Path 15020" d="M424.668,412.519a143.767,143.767,0,0,1-14.358,0c0-.1,3.2-.179,7.176-.179S424.668,412.423,424.668,412.519Z" transform="translate(-403.23 -411.302)" fill="#fff"/>
      <path id="Path_15021-2" data-name="Path 15021" d="M440.866,412.689a15.583,15.583,0,0,1-4.716,0,15.583,15.583,0,0,1,4.715,0Z" transform="translate(-412.515 -411.363)" fill="#fff"/>
    </g>
    <g id="Group_3898" data-name="Group 3898" transform="translate(0 0)">
      <path id="Path_15025" data-name="Path 15025" d="M224.458,139.55a39.638,39.638,0,1,1-21.7-51.573,39.638,39.638,0,0,1,21.7,51.573Z" transform="translate(-148.087 -85.014)" fill="#088fff"/>
      <path id="Path_15026" data-name="Path 15026" d="M219.169,139.393a30.184,30.184,0,1,1-16.531-39.3,30.184,30.184,0,0,1,16.531,39.3Z" transform="translate(-151.526 -88.424)" fill="#088fff"/>
      <path id="Path_15027" data-name="Path 15027" d="M219.068,139.295a3.665,3.665,0,0,1,.132-.477l.426-1.321c.1-.3.213-.639.33-1s.191-.793.294-1.241a21.456,21.456,0,0,0,.587-3.112,28.626,28.626,0,0,0-.1-8.654A29.971,29.971,0,0,0,192.3,98.122a31.863,31.863,0,0,0-4.257.1c-.734.073-1.424.22-2.136.323a15.5,15.5,0,0,0-2.143.462,27.7,27.7,0,0,0-8.184,3.428,28.951,28.951,0,0,0-7.061,5.982,29.42,29.42,0,0,0-7.135,17.426,28.892,28.892,0,0,0,.844,9.227,34.344,34.344,0,0,0,1.4,4.309,35.1,35.1,0,0,0,2.048,3.942,32.524,32.524,0,0,0,2.5,3.56,31.5,31.5,0,0,0,2.936,3.054,30.044,30.044,0,0,0,38.074,1.842,28.8,28.8,0,0,0,6.129-6.107,21.6,21.6,0,0,0,1.762-2.628c.242-.4.477-.734.661-1.094l.462-.947.639-1.285a3,3,0,0,1,.235-.426,4.073,4.073,0,0,1-.176.455c-.147.323-.338.734-.58,1.314l-.44.969c-.176.345-.4.734-.639,1.108a20.935,20.935,0,0,1-1.725,2.679,28.626,28.626,0,0,1-6.115,6.239,30.332,30.332,0,0,1-38.676-1.688,27.946,27.946,0,0,1-5.586-6.731,34.786,34.786,0,0,1-2.1-4.023,35.386,35.386,0,0,1-1.468-4.4,29.414,29.414,0,0,1-.873-9.418A30.1,30.1,0,0,1,167.986,108a29.722,29.722,0,0,1,7.223-6.1,34.039,34.039,0,0,1,4.111-2.121,33.5,33.5,0,0,1,4.338-1.395,16.243,16.243,0,0,1,2.2-.462c.734-.11,1.468-.25,2.2-.323a31.828,31.828,0,0,1,4.338-.1,30.218,30.218,0,0,1,28.694,25.9,28.532,28.532,0,0,1,0,8.735,20.788,20.788,0,0,1-.646,3.127c-.117.448-.206.866-.323,1.241l-.367.991-.507,1.351a3.583,3.583,0,0,1-.183.448Z" transform="translate(-151.424 -88.326)" fill="#263238"/>
      <g id="Group_3878" data-name="Group 3878" transform="translate(11.24 9.522)" opacity="0.3">
        <path id="Path_15028" data-name="Path 15028" d="M219.466,139.638c-.169-.066.213-1.343.646-3.67a32.2,32.2,0,0,0,.308-9.865,30.69,30.69,0,0,0-1.586-6.606,29.764,29.764,0,0,0-3.56-6.841A28.992,28.992,0,0,0,192.7,100.228a29.361,29.361,0,0,0-8.434.873,29.964,29.964,0,0,0-7.171,2.841,30.932,30.932,0,0,0-5.505,3.934,32.3,32.3,0,0,0-6.232,7.737c-1.189,2.033-1.74,3.252-1.909,3.186s.139-1.373,1.123-3.6a28.055,28.055,0,0,1,5.872-8.441,30.338,30.338,0,0,1,13.293-7.678,28.325,28.325,0,0,1,4.4-.866A28.9,28.9,0,0,1,192.806,98a30.1,30.1,0,0,1,4.808.551,32.69,32.69,0,0,1,4.793,1.351,32.342,32.342,0,0,1,4.5,2.114,30.14,30.14,0,0,1,3.993,2.731,28.76,28.76,0,0,1,3.391,3.208,29.3,29.3,0,0,1,2.745,3.531,30.14,30.14,0,0,1,5.013,14.446,28.149,28.149,0,0,1-1.057,10.277C220.266,138.508,219.627,139.682,219.466,139.638Z" transform="translate(-163.4 -97.985)"/>
      </g>
      <text id="_" data-name="" transform="translate(27.072 53.138)" fill="#fff" font-size="40" font-family="DMSans-Bold, DM Sans" font-weight="700" letter-spacing="0.01em"><tspan x="0" y="0"></tspan></text>
    </g>
  </g>
</svg>
