<svg id="Group_3906" data-name="Group 3906" xmlns="http://www.w3.org/2000/svg" width="155.357" height="159.906" viewBox="0 0 155.357 159.906">
  <g id="Group_3894" data-name="Group 3894" transform="translate(0)">
    <path id="Path_14868" data-name="Path 14868" d="M184.877,101.019l-.923-1.524A40.229,40.229,0,0,0,147.237,79.87a39.479,39.479,0,0,0-5.685.781,42.25,42.25,0,0,0-30.11,26.173c-2.865,7.687-3.664,16.54-9.1,22.643-7.071,7.926-19.076,8.184-29.632,7.855s-22.568-.049-29.606,7.915c-4.408,4.994-5.808,12.1-5.453,18.785.941,17.705,13.283,33.539,28.971,41.409s34.166,8.572,51.337,5.11c24.059-4.856,46.937-18.165,60.687-38.735S195.881,123.221,184.877,101.019Z" transform="translate(-37.599 -66.617)" fill="#58b3ff" opacity="0.2"/>
    <ellipse id="Ellipse_682" data-name="Ellipse 682" cx="8.651" cy="8.651" rx="8.651" ry="8.651" transform="translate(138.055)" fill="#58b3ff" opacity="0.2"/>
  </g>
  <g id="Group_3901" data-name="Group 3901" transform="translate(26.167 20.73)">
    <g id="freepik--Character--inject-2" transform="translate(0 0)">
      <path id="Path_14376" data-name="Path 14376" d="M189.247,89.488l2.3,32.633a10.175,10.175,0,0,0,10.154,9.454h0a10.175,10.175,0,0,0,10.154-10.854c-.2-3.106-.389-5.648-.389-5.648s7.9-1.229,8-9.128c.056-4.552-.732-14.916-1.4-22.847a10.361,10.361,0,0,0-10.326-9.478h-4.786a14.619,14.619,0,0,0-13.712,15.868Z" transform="translate(-159.328 -71.073)" fill="#ffbe9d"/>
      <path id="Path_14377" data-name="Path 14377" d="M233.728,186.3a18.363,18.363,0,0,1-10.3-2.927s2.433,5.686,10.315,4.976Z" transform="translate(-181.579 -142.395)" fill="#eb996e"/>
      <path id="Path_14378" data-name="Path 14378" d="M260.441,126.1a1.127,1.127,0,0,1-1.089,1.138,1.078,1.078,0,0,1-1.162-1.015,1.131,1.131,0,0,1,1.085-1.141,1.082,1.082,0,0,1,1.166,1.019Z" transform="translate(-204.168 -104.515)" fill="#263238"/>
      <path id="Path_14379" data-name="Path 14379" d="M259.467,121.163c-.14.147-.994-.483-2.206-.48s-2.1.609-2.237.462c-.063-.067.081-.35.466-.616a3.1,3.1,0,0,1,1.789-.55,2.948,2.948,0,0,1,1.751.567C259.411,120.834,259.537,121.1,259.467,121.163Z" transform="translate(-202.101 -101.2)" fill="#263238"/>
      <path id="Path_14380" data-name="Path 14380" d="M226.611,126.1a1.127,1.127,0,0,1-1.089,1.138,1.078,1.078,0,0,1-1.162-1.015,1.131,1.131,0,0,1,1.089-1.141,1.082,1.082,0,0,1,1.163,1.019Z" transform="translate(-182.183 -104.515)" fill="#263238"/>
      <path id="Path_14381" data-name="Path 14381" d="M225.39,121.8c-.14.147-1-.487-2.209-.483s-2.1.613-2.237.462c-.063-.067.077-.329.466-.613a3.151,3.151,0,0,1,1.789-.553,3.018,3.018,0,0,1,1.751.567C225.33,121.468,225.456,121.734,225.39,121.8Z" transform="translate(-179.953 -101.61)" fill="#263238"/>
      <path id="Path_14382" data-name="Path 14382" d="M245.192,130.957a7.911,7.911,0,0,1,1.971-.35c.308-.035.6-.095.655-.308a1.565,1.565,0,0,0-.207-.917q-.434-1.124-.917-2.36a40.806,40.806,0,0,1-2.059-6.173,40.745,40.745,0,0,1,2.553,5.991q.459,1.246.879,2.377a1.781,1.781,0,0,1,.158,1.215.763.763,0,0,1-.508.452,1.923,1.923,0,0,1-.525.074A7.925,7.925,0,0,1,245.192,130.957Z" transform="translate(-195.351 -101.765)" fill="#263238"/>
      <path id="Path_14383" data-name="Path 14383" d="M235.681,152.12c.2,0,.2,1.306,1.327,2.241s2.528.791,2.539.973c.021.084-.312.256-.9.273a3.284,3.284,0,0,1-2.122-.739,2.854,2.854,0,0,1-1.029-1.88C235.443,152.428,235.59,152.113,235.681,152.12Z" transform="translate(-189.411 -122.087)" fill="#263238"/>
      <path id="Path_14384" data-name="Path 14384" d="M224.277,108.742c-.119.35-1.331.175-2.756.35s-2.577.56-2.766.263c-.084-.14.116-.452.581-.77a4.828,4.828,0,0,1,4.2-.466C224.081,108.329,224.329,108.595,224.277,108.742Z" transform="translate(-178.529 -93.31)" fill="#263238"/>
      <path id="Path_14385" data-name="Path 14385" d="M258.8,110.995c-.214.277-1.05,0-2.055-.024s-1.856.186-2.052-.1c-.088-.14.046-.417.42-.679a2.969,2.969,0,0,1,3.309.105C258.775,110.575,258.894,110.879,258.8,110.995Z" transform="translate(-201.878 -94.544)" fill="#263238"/>
      <path id="Path_14386" data-name="Path 14386" d="M187.244,135.408c-.137-.06-5.427-1.6-5.252,3.8s5.557,4.114,5.564,3.957S187.244,135.408,187.244,135.408Z" transform="translate(-154.647 -111.065)" fill="#ffbe9d"/>
      <path id="Path_14387" data-name="Path 14387" d="M188.374,144.445c-.025,0-.091.07-.249.147a.949.949,0,0,1-.7.039,2.336,2.336,0,0,1-1.145-2.055,3.151,3.151,0,0,1,.221-1.355,1.092,1.092,0,0,1,.7-.746.48.48,0,0,1,.564.242c.077.147.046.256.074.266s.116-.095.063-.319a.6.6,0,0,0-.224-.329.7.7,0,0,0-.525-.123,1.327,1.327,0,0,0-.956.868,3.235,3.235,0,0,0-.277,1.516,2.432,2.432,0,0,0,1.446,2.29,1.008,1.008,0,0,0,.858-.172C188.367,144.578,188.395,144.456,188.374,144.445Z" transform="translate(-157.198 -114.342)" fill="#eb996e"/>
      <path id="Path_14388" data-name="Path 14388" d="M186.583,93.247a2.835,2.835,0,0,1,2.6,1.331c.35.77.427,1.646.777,2.419a1.9,1.9,0,0,0,1.968,1.271,1.656,1.656,0,0,0,1.124-1.229,4.552,4.552,0,0,0,.018-1.751c-.319-2.521-.847-5.021-.949-7.563a13.019,13.019,0,0,1,1.593-7.353,7.062,7.062,0,0,1,6.3-3.55c1.677.133,3.218,1.008,4.884,1.243a6.593,6.593,0,0,0,5.483-1.831c.182-.179,1.022-.735,1.022-.735a3.113,3.113,0,0,0-.567-1.67c-3.309-3.057-9.268-3.911-13.638-2.8A15.844,15.844,0,0,0,186.852,79.3c-1.88,4.076-1.32,9.8-.284,13.936" transform="translate(-157.004 -69.086)" fill="#263238"/>
      <path id="Path_14389" data-name="Path 14389" d="M214.3,77.171s-20.721-6.653-29.685,11.261a33.572,33.572,0,0,1-1.341-6.891c0-1.607.959-11.173,10.805-14.184C194.075,67.356,208.9,61.7,214.3,77.171Z" transform="translate(-155.481 -66.346)" fill="#354a5c"/>
      <path id="Path_14390" data-name="Path 14390" d="M220.246,91.709a4.51,4.51,0,0,0,7.174.651,2.658,2.658,0,0,0,5.025-.263,6,6,0,0,0,2.017,1.471,2.053,2.053,0,0,0,2.3-.48,2.028,2.028,0,0,0-.144-2.377,4.9,4.9,0,0,0-2.1-1.4,15.151,15.151,0,0,0-7.822-1.183,10.5,10.5,0,0,0-6.856,3.733" transform="translate(-179.246 -80.437)" fill="#263238"/>
      <path id="Path_14392" data-name="Path 14392" d="M189.57,87.177a38.819,38.819,0,0,1,12.073-11.555c4.765-2.966,12.64-5.917,18.067-7.353a11.794,11.794,0,0,1,4.993-.525,4.5,4.5,0,0,1,3.7,3.029c.518,2.048-3.116,5.207-4.821,6.446a56.324,56.324,0,0,1-5.189,3.064s.049-3.8-6.029-4.576C204.1,74.624,189.57,87.177,189.57,87.177Z" transform="translate(-159.575 -67.19)" fill="#021d33"/>
      <path id="Path_14393" data-name="Path 14393" d="M237.538,73.611a19.51,19.51,0,0,1,5.984-2.038,7.8,7.8,0,0,0-1.628-.973,15.381,15.381,0,0,0-4.664,1.569Z" transform="translate(-190.547 -69.111)" fill="#e0e0e0"/>
      <path id="Path_14394" data-name="Path 14394" d="M167.73,201.121l-6.572-1.45L158.482,199l-2.227-3.452s-1.05,6.173-5.039,9.5a4.625,4.625,0,0,1-3.918.938c-.9-.189-1.957-.42-2.742-.63-.168-.046-.35-.105-.546-.175a12.819,12.819,0,0,1-6.768-5.837c-.882-1.569-1.628-3.179-1.373-3.792l-3.12,6.46-18.383,8.466-10.438,25.5,20.228,5.98.63,21.009-3.81,26.485,57.224.039-2.031-58.926" transform="translate(-103.921 -150.31)" fill="#088fff"/>
      <path id="Path_14395" data-name="Path 14395" d="M233.506,246.671a2.2,2.2,0,0,1-.35,0l-1.019-.025-3.638-.13h-.07v-.06c-.06-1.579-.133-3.449-.214-5.448-.095-2.882-.179-5.487-.245-7.4-.021-.931-.039-1.691-.053-2.244v-.609a.841.841,0,0,1,0-.214.931.931,0,0,1,.025.21c0,.161.025.35.039.609.028.553.067,1.313.112,2.241.077,1.915.182,4.52.3,7.4.07,2,.133,3.873.189,5.452l-.077-.074,3.638.193,1.015.067a1.616,1.616,0,0,1,.35.035Z" transform="translate(-184.491 -173.049)" fill="#263238"/>
      <path id="Path_14396" data-name="Path 14396" d="M233.03,251.849a.5.5,0,0,1,.273-.091,1.18,1.18,0,0,1,1.12.627,1.05,1.05,0,0,1,.1.637,1.289,1.289,0,0,1-.935,1.05,1.355,1.355,0,0,1-1.331-.473,1.292,1.292,0,0,1-.252-1.131,1.376,1.376,0,0,1,.378-.7c.133-.13.231-.172.235-.161s-.07.074-.182.21a1.477,1.477,0,0,0-.3.662,1.187,1.187,0,0,0,.252,1,1.215,1.215,0,0,0,1.163.406,1.131,1.131,0,0,0,.809-.9.952.952,0,0,0-.375-.924,1.106,1.106,0,0,0-.676-.242C233.125,251.828,233.03,251.863,233.03,251.849Z" transform="translate(-187.128 -186.738)" fill="#263238"/>
      <path id="Path_14397" data-name="Path 14397" d="M231.647,230.748a.56.56,0,0,1,.287-.133,1.243,1.243,0,0,1,.854.126,1.222,1.222,0,0,1,.459.406,1.148,1.148,0,0,1,.193.683,1.372,1.372,0,0,1-.924,1.243,1.4,1.4,0,0,1-1.464-.511,1.229,1.229,0,0,1-.256-.658,1.449,1.449,0,0,1,.1-.606,1.4,1.4,0,0,1,.55-.665.571.571,0,0,1,.3-.112,1.89,1.89,0,0,0-.256.172,1.4,1.4,0,0,0-.469.651,1.152,1.152,0,0,0,.168,1.117,1.239,1.239,0,0,0,1.278.438,1.218,1.218,0,0,0,.809-1.075,1.05,1.05,0,0,0-.543-.97,1.268,1.268,0,0,0-.781-.168C231.756,230.709,231.654,230.762,231.647,230.748Z" transform="translate(-186.365 -173.036)" fill="#263238"/>
      <path id="Path_14398" data-name="Path 14398" d="M227.91,254.53a.488.488,0,0,1,.088-.038l.263-.1c.235-.081.567-.228.991-.424a13.138,13.138,0,0,0,3.221-2.29,25.707,25.707,0,0,0,3.687-4.573,64.518,64.518,0,0,0,3.592-6.261,109.014,109.014,0,0,0,5.1-12.087c.571-1.583,1.015-2.868,1.327-3.754l.35-1.022c.038-.105.074-.193.1-.263a.489.489,0,0,1,.039-.088.352.352,0,0,1-.021.095c-.021.07-.049.158-.081.27-.081.249-.189.592-.326,1.05-.291.893-.718,2.185-1.278,3.771a100.818,100.818,0,0,1-5.049,12.1,62.519,62.519,0,0,1-3.613,6.271,25.246,25.246,0,0,1-3.74,4.583,12.734,12.734,0,0,1-3.277,2.258,9.443,9.443,0,0,1-1.012.4l-.27.084A.309.309,0,0,1,227.91,254.53Z" transform="translate(-184.49 -168.558)" fill="#263238"/>
      <path id="Path_14399" data-name="Path 14399" d="M257.973,291.468c.151,0,3.634-.238,3.634-.238a12.2,12.2,0,0,1-2.938,3.5h-3.05Z" transform="translate(-202.498 -212.489)" fill="#fafafa"/>
      <path id="Path_14400" data-name="Path 14400" d="M226.17,302.358a1.134,1.134,0,0,1,.2-.151l.588-.406c.508-.35,1.24-.875,2.118-1.551,1.751-1.341,4.083-3.344,6.576-5.634,1.247-1.145,2.451-2.223,3.48-3.26a27.224,27.224,0,0,0,2.567-2.913,15.821,15.821,0,0,0,1.4-2.206c.154-.27.249-.49.322-.637a1.24,1.24,0,0,1,.123-.221,1.471,1.471,0,0,1-.088.235c-.063.151-.151.378-.294.655a14.469,14.469,0,0,1-1.362,2.251,25.679,25.679,0,0,1-2.553,2.955c-1.033,1.05-2.23,2.132-3.477,3.274a86.144,86.144,0,0,1-6.618,5.6c-.893.662-1.639,1.166-2.157,1.506-.263.168-.469.291-.609.378A1.091,1.091,0,0,1,226.17,302.358Z" transform="translate(-183.36 -208.687)" fill="#263238"/>
      <path id="Path_14401" data-name="Path 14401" d="M198.13,395.429a.156.156,0,0,1,.042-.084,2.37,2.37,0,0,0,.144-.231c.13-.2.326-.494.588-.865.525-.735,1.338-1.772,2.409-2.99,2.157-2.419,5.179-5.721,8.5-9.377l8.575-9.345,2.609-2.8.7-.76.189-.193.07-.063a.716.716,0,0,1-.056.074l-.175.207-.7.784-2.567,2.854-8.508,9.356-8.544,9.342c-1.082,1.2-1.908,2.223-2.451,2.945-.27.35-.476.648-.613.844l-.158.221A.643.643,0,0,1,198.13,395.429Z" transform="translate(-165.138 -262.846)" fill="#263238"/>
      <path id="Path_14402" data-name="Path 14402" d="M284.84,211c.3.452,7.066,1.2,8.722,2.857s18.207,14.286,18.207,14.286l-11.8,15.875-7.612-1.677Z" transform="translate(-221.487 -160.35)" fill="#088fff"/>
      <path id="Path_14403" data-name="Path 14403" d="M331.475,255.56,318.25,272.22l3.435.756,11.782-15.893Z" transform="translate(-243.198 -189.308)" opacity="0.4"/>
      <path id="Path_14404" data-name="Path 14404" d="M294.376,232.986a3.819,3.819,0,0,1-.137-.553c-.039-.179-.084-.4-.116-.658s-.084-.553-.1-.882-.052-.7-.052-1.075,0-.8.031-1.232a17.079,17.079,0,0,1,.438-2.8,16.823,16.823,0,0,1,.942-2.672c.186-.392.35-.77.55-1.106s.371-.648.55-.924.35-.515.5-.728a6.46,6.46,0,0,1,.41-.529,3.277,3.277,0,0,1,.382-.424,3.462,3.462,0,0,1-.326.466c-.109.147-.242.326-.382.546s-.319.455-.48.739-.35.585-.525.928-.35.7-.529,1.1a18.212,18.212,0,0,0-.9,2.651,18.411,18.411,0,0,0-.445,2.763c-.025.431-.056.84-.046,1.222s0,.739.028,1.05.049.62.074.879.056.48.084.658A3.044,3.044,0,0,1,294.376,232.986Z" transform="translate(-227.42 -165.809)" fill="#263238"/>
      <path id="Path_14405" data-name="Path 14405" d="M305.136,283.36a34.218,34.218,0,0,1-1.46-3.232,34.7,34.7,0,0,1-1.3-3.3,34.893,34.893,0,0,1,1.464,3.228A33.487,33.487,0,0,1,305.136,283.36Z" transform="translate(-232.885 -203.131)" fill="#263238"/>
      <path id="Path_14406" data-name="Path 14406" d="M147.838,249.088c-.028,0-.312-.508-.847-1.3a18.6,18.6,0,0,0-2.388-2.847,18.954,18.954,0,0,0-2.913-2.3c-.805-.511-1.334-.777-1.32-.805a1.753,1.753,0,0,1,.385.158,11.294,11.294,0,0,1,1,.539,16.174,16.174,0,0,1,2.976,2.279,16.417,16.417,0,0,1,2.367,2.906c.256.406.448.742.567.984A1.705,1.705,0,0,1,147.838,249.088Z" transform="translate(-127.601 -180.392)" fill="#263238"/>
      <path id="Path_14407" data-name="Path 14407" d="M103.93,307.285l.816-1.985,22.374,6.092-.886,2.49Z" transform="translate(-103.921 -221.632)" opacity="0.4"/>
      <path id="Path_14408" data-name="Path 14408" d="M270.1,288.56h8.519v3.5l-10.9-.07A23.578,23.578,0,0,0,270.1,288.56Z" transform="translate(-210.361 -210.753)" fill="#fafafa"/>
      <g id="Group_3816" data-name="Group 3816" transform="translate(29.354 52.278)" opacity="0.2">
        <path id="Path_14409" data-name="Path 14409" d="M187.74,215.843c.308,2.731.644,5.55,2,7.945s4,4.282,6.716,3.88a8.117,8.117,0,0,0,4.587-2.84c1.236-1.359,2.272-2.9,3.62-4.139a15.968,15.968,0,0,0,2.717,2.335,5.326,5.326,0,0,0,3.407.9A2.316,2.316,0,0,0,213,222.173a5.607,5.607,0,0,1-3.228.091,8.827,8.827,0,0,1-3.82-1.751c-.742-.585-1.012-1.464-1.954-1.4a3.329,3.329,0,0,0-2.129,1.4,24.508,24.508,0,0,1-3.039,2.927,5.078,5.078,0,0,1-3.4,1.362c-2.2-.049-4.006-1.779-5.221-3.617a18.13,18.13,0,0,1-2.451-5.536" transform="translate(-187.74 -215.65)"/>
      </g>
      <path id="Path_14410" data-name="Path 14410" d="M244.659,206.47a.906.906,0,0,1,.038.2c0,.13.042.319.067.564.052.49.105,1.2.126,2.1a29.779,29.779,0,0,1-.655,6.852v.112h-.053a7.416,7.416,0,0,1-3.771-.1,8.823,8.823,0,0,1-2.8-1.31,7.212,7.212,0,0,1-1.53-1.4,4.907,4.907,0,0,1-.329-.455,1.051,1.051,0,0,1-.1-.172,8.95,8.95,0,0,0,2.031,1.933,9.05,9.05,0,0,0,2.766,1.253,7.4,7.4,0,0,0,3.684.088l-.067.067v-.056a31.961,31.961,0,0,0,.7-6.814c0-.879-.039-1.59-.067-2.083,0-.228-.025-.413-.035-.564a.728.728,0,0,1,0-.21Z" transform="translate(-189.52 -157.407)" fill="#263238"/>
      <path id="Path_14411" data-name="Path 14411" d="M202.3,217.388a.889.889,0,0,1-.112.21,5.743,5.743,0,0,1-.385.56,15.077,15.077,0,0,1-1.723,1.817c-.389.35-.826.739-1.3,1.138-.238.2-.476.41-.742.62a6.9,6.9,0,0,1-.865.557,5.319,5.319,0,0,1-2.1.641,3.974,3.974,0,0,1-2.311-.511,7.325,7.325,0,0,1-1.81-1.523,17.907,17.907,0,0,1-1.366-1.723,17.655,17.655,0,0,1-1.782-3.26,16.776,16.776,0,0,1-.784-2.374c-.074-.287-.119-.511-.147-.665a1.191,1.191,0,0,1-.035-.235,1.03,1.03,0,0,1,.07.228c.042.151.1.371.179.655a19.859,19.859,0,0,0,.837,2.342,18.134,18.134,0,0,0,1.8,3.211,17.7,17.7,0,0,0,1.359,1.7,7.193,7.193,0,0,0,1.751,1.488,3.824,3.824,0,0,0,2.209.49,5.273,5.273,0,0,0,2.045-.609,6.5,6.5,0,0,0,.851-.539c.256-.2.5-.41.739-.606.476-.4.917-.767,1.31-1.117a16.811,16.811,0,0,0,1.751-1.751c.186-.224.322-.41.413-.536A1.464,1.464,0,0,1,202.3,217.388Z" transform="translate(-157.801 -161.416)" fill="#263238"/>
      <path id="Path_14412" data-name="Path 14412" d="M209.46,311.92l2.7-3.936s1.856-6.45,1.6-7.353-1.071-4.265-.879-4.307,2.213-.791,3.309,1.9a17.7,17.7,0,0,1,.98,5.322,1.222,1.222,0,0,0,1.467,1.141c1.866-.385,4.972-.97,5.711-.791a3.632,3.632,0,0,1,2.122,2.08c.091.459-.644,1.492-.644,1.492a2.81,2.81,0,0,1,1.19,1.169c.039.095.07.189.1.28a1.7,1.7,0,0,1-.375,1.639l-.287.315s1.138.312,1.278.963a3.89,3.89,0,0,1-.039,1.432l-1.068,1.1a1.8,1.8,0,0,1,.553,1.05c.056.6-1.544,2.1-1.544,2.1l-6.866,2.451-2.724.7Z" transform="translate(-172.5 -215.717)" fill="#ffbe9d"/>
      <path id="Path_14413" data-name="Path 14413" d="M247.419,328.409a24.342,24.342,0,0,1-2.381.515,23.648,23.648,0,0,1-2.388.455,2.972,2.972,0,0,1,.676-.235c.424-.119,1.015-.266,1.677-.4s1.261-.231,1.7-.287A2.676,2.676,0,0,1,247.419,328.409Z" transform="translate(-194.069 -236.646)" fill="#aa6550"/>
      <path id="Path_14414" data-name="Path 14414" d="M251.217,338.12a20.746,20.746,0,0,1-3.687,1.124,20.746,20.746,0,0,1,3.687-1.124Z" transform="translate(-197.24 -242.96)" fill="#aa6550"/>
      <path id="Path_14415" data-name="Path 14415" d="M251.932,347.69A25.594,25.594,0,0,1,248,349.409a25.594,25.594,0,0,1,3.932-1.719Z" transform="translate(-197.546 -249.179)" fill="#aa6550"/>
      <path id="Path_14416" data-name="Path 14416" d="M125.044,347.972l25.252-16.94-6.373-11.555L120.878,331.33l2.616-12.451-15.641-4.629-3.915,21.324h0c-.6,9.482,7,17.136,16.17,14.646h0A16.7,16.7,0,0,0,125.044,347.972Z" transform="translate(-103.904 -227.448)" fill="#ffbe9d"/>
      <path id="Path_14417" data-name="Path 14417" d="M142.524,369.316a1.068,1.068,0,0,1-.088-.319,5.856,5.856,0,0,1-.088-.893A6.3,6.3,0,0,1,143,365.23a6.239,6.239,0,0,1,1.908-2.248,5.144,5.144,0,0,1,.763-.469,1.111,1.111,0,0,1,.308-.123c0,.032-.41.231-.994.7a6.523,6.523,0,0,0-2.507,5.025C142.461,368.85,142.577,369.312,142.524,369.316Z" transform="translate(-128.887 -258.732)" fill="#eb996e"/>
      <path id="Path_14418" data-name="Path 14418" d="M328.06,278.35c.158-.217,17.983,10.644,17.983,10.644l5.714,26.033,8.225,3.018s2.567-28.971.613-33.481-21.761-20.736-21.761-20.736Z" transform="translate(-249.573 -194.682)" fill="#ffbe9d"/>
      <path id="Path_14419" data-name="Path 14419" d="M384.022,330a4.7,4.7,0,0,1-1.544,1.457,4.765,4.765,0,0,1-1.968.805,19.9,19.9,0,0,0,1.87-.959,18.727,18.727,0,0,0,1.642-1.3Z" transform="translate(-283.659 -237.683)" fill="#eb996e"/>
      <path id="Path_14420" data-name="Path 14420" d="M266.83,303.374l1.4,24.986,28.488-1.926-.861-18.6L291.7,302.25Z" transform="translate(-209.783 -219.65)" fill="#4f9526"/>
      <path id="Path_14421" data-name="Path 14421" d="M248.34,372.685c.084.48,2.5,23.109,2.5,23.109l42.4-2.945,7.174-.963-3.309-21.072-5.067-1.215Z" transform="translate(-197.767 -263.418)" fill="#677785"/>
      <path id="Path_14422" data-name="Path 14422" d="M292.041,369.59l-43.7,3.088c.084.48,2.5,23.109,2.5,23.109l44.143-3.071Z" transform="translate(-197.767 -263.411)" opacity="0.4"/>
      <path id="Path_14423" data-name="Path 14423" d="M292.443,326.721l-24.216,1.639-1.4-24.986L291.7,302.25Z" transform="translate(-209.783 -219.65)" fill="#73d13d"/>
      <path id="Path_14424" data-name="Path 14424" d="M292.62,303.9l.511,7.7,1.3-.742.718.742.893-.742,1.38.742V303.68Z" transform="translate(-226.542 -220.579)" fill="#def128"/>
      <path id="Path_14436" data-name="Path 14436" d="M307.482,380.622l-.14-6.982-5.662.382.606,7.094Z" transform="translate(-232.43 -266.043)" fill="#def128"/>
      <rect id="Rectangle_1782" data-name="Rectangle 1782" width="9.548" height="8.445" transform="translate(84.01 119.148) rotate(-5.42)" fill="#fafafa"/>
      <path id="Path_14437" data-name="Path 14437" d="M353.918,412.367a1.247,1.247,0,0,1-.024-.161c0-.116-.032-.266-.053-.455-.042-.406-.105-.984-.182-1.709-.151-1.478-.35-3.564-.616-6.075l.084.07-9.5.914c-.021.021.154-.186.081-.1h0v.277l.028.287.053.567c.039.375.073.746.109,1.117.067.739.137,1.46.2,2.167.129,1.4.256,2.749.368,3.985l-.088-.07,6.859-.609,1.947-.165.522-.039a1.208,1.208,0,0,1,.186,0,1.02,1.02,0,0,1-.165.025l-.5.06-1.926.2-6.9.7h-.081v-.081c-.123-1.24-.252-2.577-.389-3.985q-.1-1.05-.207-2.167c-.035-.371-.07-.742-.105-1.12-.017-.186-.035-.375-.056-.564l-.024-.287v-.277h0c-.074.087.1-.123.084-.1l9.5-.886h.077v.077c.224,2.532.41,4.639.543,6.131.06.718.105,1.289.14,1.695,0,.186.025.333.031.445A.886.886,0,0,1,353.918,412.367Z" transform="translate(-259.619 -285.701)" fill="#263238"/>
      <path id="Path_14438" data-name="Path 14438" d="M355.01,409.821c0,.052-1.656.266-3.712.483a37.208,37.208,0,0,1-3.729.3c0-.049,1.656-.266,3.711-.483S355.007,409.772,355.01,409.821Z" transform="translate(-262.252 -289.549)" fill="#263238"/>
      <path id="Path_14439" data-name="Path 14439" d="M355.468,413.92a5.276,5.276,0,0,1-1.019.256c-.637.126-1.523.273-2.507.389s-1.884.179-2.532.2a5.868,5.868,0,0,1-1.05,0,6.443,6.443,0,0,1,1.05-.119c.644-.06,1.534-.14,2.514-.256s1.866-.242,2.507-.35A7,7,0,0,1,355.468,413.92Z" transform="translate(-262.766 -292.219)" fill="#263238"/>
      <path id="Path_14440" data-name="Path 14440" d="M356.611,422.84a5.468,5.468,0,0,1-1.022.256c-.637.126-1.523.273-2.507.389s-1.88.179-2.532.2a5.441,5.441,0,0,1-1.05,0,6.429,6.429,0,0,1,1.05-.119c.644-.056,1.537-.14,2.518-.256s1.866-.242,2.507-.35A6.956,6.956,0,0,1,356.611,422.84Z" transform="translate(-263.506 -298.016)" fill="#263238"/>
      <path id="Path_14441" data-name="Path 14441" d="M355.514,418.27a32.481,32.481,0,0,1-3.463.588,33.439,33.439,0,0,1-3.5.406,66.687,66.687,0,0,1,6.964-.994Z" transform="translate(-262.889 -295.046)" fill="#263238"/>
      <path id="Path_14442" data-name="Path 14442" d="M371.153,425.125s7.826-5.179,8.428-7.826.963-5.056.963-5.056l-8.361-3.463.83,3.011s-3,1.782-3.305,3.943c-.2,1.439-4.079,3.9-4.079,3.9h0a3.2,3.2,0,0,0-2.672-1.152l-3.256.231,2.2,4.962Z" transform="translate(-270.135 -288.879)" fill="#ffbe9d"/>
      <path id="Path_14443" data-name="Path 14443" d="M384.783,435.19a1.248,1.248,0,0,1-.368.151c-.245.081-.609.161-1.05.3a4.258,4.258,0,0,0-1.359.791,6.812,6.812,0,0,1-1.674,1.05,5.679,5.679,0,0,1-3.55.3,1.908,1.908,0,0,1-.592-.221.434.434,0,0,1-.217-.434.322.322,0,0,1,.175-.252.13.13,0,0,1,.109,0,.172.172,0,0,0-.091.039.3.3,0,0,0-.123.231.35.35,0,0,0,.2.35,1.968,1.968,0,0,0,.567.179,5.827,5.827,0,0,0,3.449-.35,6.832,6.832,0,0,0,1.639-1.029,4.234,4.234,0,0,1,1.422-.777c.448-.126.812-.186,1.05-.249A2.627,2.627,0,0,1,384.783,435.19Z" transform="translate(-280.708 -306.042)" fill="#eb996e"/>
      <path id="Path_14444" data-name="Path 14444" d="M373.014,440.055c0,.028-.4-.2-1.068-.48a9.742,9.742,0,0,0-2.714-.676c-.273-.028-.543-.035-.8-.042h-.049l-.028-.042A8.4,8.4,0,0,0,366.9,437.1c-.424-.382-.7-.578-.7-.6s.084.028.217.112a6.426,6.426,0,0,1,.546.4,7.321,7.321,0,0,1,1.53,1.712l-.074-.042a5.442,5.442,0,0,1,.819.042,8.588,8.588,0,0,1,2.749.739,6.786,6.786,0,0,1,.76.406A1.051,1.051,0,0,1,373.014,440.055Z" transform="translate(-274.359 -306.891)" fill="#eb996e"/>
      <path id="Path_14445" data-name="Path 14445" d="M387.528,442.6c0,.049-.529.249-1.145.6s-1.068.718-1.1.676A3.81,3.81,0,0,1,387.528,442.6Z" transform="translate(-286.758 -310.857)" fill="#eb996e"/>
      <path id="Path_14446" data-name="Path 14446" d="M399.6,415.831c0,.056-.546,0-1.17.158s-1.05.48-1.1.434A2.287,2.287,0,0,1,399.6,415.831Z" transform="translate(-294.589 -293.402)" fill="#eb996e"/>
    </g>
  </g>
</svg>
